<svg xmlns:inkscape="http://www.inkscape.org/namespaces/inkscape" xmlns:sodipodi="http://sodipodi.sourceforge.net/DTD/sodipodi-0.dtd" xmlns="http://www.w3.org/2000/svg" xmlns:svg="http://www.w3.org/2000/svg" viewBox="0 0 1908 820" id="svg28" sodipodi:docname="Better-Call-Bob-logo-v2.svg" inkscape:version="1.2.2 (b0a8486, 2022-12-01)"><defs id="defs32"></defs><g id="g203" transform="matrix(0.89724526,0,0,0.89724526,45.360712,64.608875)"><path d="m 1227.1,612.85 q -6.08,-2.62 -11.28,-5.32 -15.39,-7.99 -29.58,-19.46 -4.08,-3.3 -9.92,-8.69 c -9.77,-9.02 -18.84,-20.2 -25.68,-30.99 q -9.08,-14.34 -16.08,-31.64 -3.37,-8.35 -5.9,-17.33 -5.48,-19.37 -7.27,-38.3 -1.4,-14.8 -0.75,-32.35 c 1.05,-28.86 8.59,-57.54 21.5,-83.02 q 8.48,-16.74 19.49,-30.01 5.64,-6.78 12.08,-13.44 c 16.67,-17.21 38.02,-30.65 60.89,-39.79 q 16.78,-6.7 37.25,-10.27 47.98,-8.35 94.83,4.98 36.19,10.29 65.37,35.06 16.92,14.37 32.63,36.96 3.88,5.58 9.17,16.25 5.97,12.04 10.49,25.48 3.08,9.2 5.33,19.41 11.96,54.24 -2.94,108.35 -1.18,4.27 -3.76,11.59 c -2.29,6.52 -5.01,12.37 -7.78,18.54 -3.19,7.1 -7.88,14.69 -11.85,20.61 q -10.16,15.14 -21.21,26.1 -6.49,6.44 -13.31,12.17 c -5.44,4.58 -11.67,9.25 -17.91,12.99 q -23.45,14.05 -45.35,20.08 -58.23,16.02 -116.81,-0.21 -10.38,-2.88 -21.65,-7.75 z m -22.03,-148.24 c 3.35,21.25 13.34,44.19 28.36,59.77 q 22.13,22.96 54.4,28.99 21.65,4.04 42.57,-0.33 43.52,-9.09 65.53,-46.61 6.2,-10.57 9.49,-20.47 13.9,-41.85 2.65,-84.75 c -5.23,-19.92 -16.19,-38.91 -30.98,-52.57 q -15.69,-14.49 -37.39,-21.32 c -17.21,-5.42 -36.49,-5.67 -54.19,-2.59 q -9.46,1.64 -19.26,5.74 -30.22,12.63 -46.68,40.69 -5.11,8.71 -8.54,18.45 -4.3,12.24 -5.94,22.57 -4.16,26.2 -0.02,52.43 z" fill="#3c5a40" id="path2"></path><path d="m 1022.2,427.73 c 18.47,4.54 35.24,11.47 49.56,24.1 18.97,16.73 27.81,39.04 27.9,64.26 q 0.04,13.53 -2.03,25.98 -0.57,3.4 -2.91,11.43 c -3.65,12.55 -11.2,25.39 -21.13,34.46 q -10.13,9.27 -19.5,14.03 -10.69,5.43 -21.88,8.98 -12.75,4.04 -29.23,6.53 c -14.48,2.19 -28.9,3.32 -43.64,3.35 q -65.01,0.16 -124.2,0.02 -10.25,-0.03 -18.85,-3.35 c -10.23,-3.95 -17.42,-12.62 -21.28,-22.99 q -3.07,-8.27 -3.08,-19.28 -0.16,-127.97 -0.13,-271 0,-5.27 0.88,-11.62 1.18,-8.43 5.44,-15.98 6.79,-12.02 19.16,-16.69 7.68,-2.91 16.98,-2.97 64.79,-0.46 129,-0.02 10.23,0.07 22.5,1.26 c 24.66,2.38 50.61,9.23 69.13,24.04 q 12.02,9.61 18.92,20.93 c 3.67,6.03 7.19,14.06 8.78,21.02 q 5.72,25.04 0.92,46.33 -4.62,20.46 -19.98,34.84 c -11.12,10.41 -26.63,17.44 -41.34,21.51 q -1.59,0.44 0.01,0.83 z m -22.13,-52.72 q 2.79,-13.28 -0.63,-26.61 c -3.1,-12.05 -11.94,-21.23 -23.5,-25.73 q -8.68,-3.38 -15.01,-4.27 -9.27,-1.31 -17.1,-1.35 -36.48,-0.22 -70.02,-0.08 a 0.32,0.31 0 0 0 -0.32,0.31 l -0.01,94.43 q 0,0.56 0.55,0.56 34.83,0.01 67.25,-0.01 17.14,-0.01 31.36,-5.54 c 13.88,-5.4 24.33,-16.98 27.43,-31.71 z m 15.13,142.07 c 1.67,-18.75 -3.24,-37.35 -20.26,-46.76 q -8.44,-4.67 -16.9,-6.5 -15.77,-3.42 -33.08,-3.37 -36.38,0.1 -70.99,-0.04 -0.48,0 -0.48,0.48 v 99.39 q 0,0.55 0.55,0.54 37.04,-0.09 73.55,0 c 8.04,0.02 16.22,-0.62 24.17,-1.78 q 9.04,-1.3 17.64,-4.79 c 8.52,-3.45 15.05,-8.88 19.7,-16.43 q 4.97,-8.05 6.1,-20.74 z" fill="#3c5a40" id="path4"></path><path d="m 1761,426.82 q -1.75,0.47 0.01,0.91 8.95,2.26 17.5,5.31 c 18.78,6.7 36.52,19.44 47.16,36.49 q 9.83,15.77 11.83,33.8 2.2,19.8 -1.39,39.56 -2.83,15.53 -10.9,29.13 -4.97,8.4 -12.2,15.24 -10.2,9.66 -20.35,14.91 -8.61,4.46 -21.16,8.6 -11.63,3.83 -28.03,6.48 -15.2,2.44 -31.2,3.19 -11.71,0.55 -32.55,0.56 -56.37,0 -106.5,-0.16 -29.78,-0.09 -39.81,-27.17 -1.68,-4.55 -2.3,-11.73 -0.5,-5.85 -0.5,-11.9 -0.12,-136.7 0.03,-266.8 c 0.01,-8.85 1.44,-18 5.71,-25.77 q 9.18,-16.7 27.97,-19.7 5.88,-0.95 15,-0.91 c 52.1,0.21 94.7,-0.2 123.65,0.14 q 24.73,0.28 47.99,5.69 c 17.7,4.11 35.6,12.35 48.82,24.82 q 7.65,7.22 12.15,14.69 7.38,12.26 10.08,24.99 c 3,14.14 3.53,31.53 -0.3,45.6 q -7.61,28.01 -33.51,42.83 -12.76,7.3 -27.2,11.2 z m -81.64,-14.54 c 17.05,0 35.13,-3.53 47.66,-15.69 q 9.3,-9.03 11.92,-22.17 c 1.75,-8.76 1.61,-19.56 -1.3,-27.99 q -5.68,-16.48 -21.9,-23.29 -10.52,-4.42 -19.98,-5.25 c -5.71,-0.5 -11.18,-0.92 -16.87,-0.92 q -33.67,-0.03 -66.39,-0.04 -0.32,0 -0.32,0.32 l -0.03,94.45 q 0,0.58 0.58,0.58 33.19,-0.01 66.63,0 z m 31.35,146.79 c 10.28,-1.46 23.23,-5.67 30.74,-13.24 3.15,-3.18 6.45,-7.24 8.25,-11.38 5.39,-12.35 6.03,-28.66 2.06,-41.63 -2.44,-7.97 -7.57,-15.57 -14.47,-20.22 -14.02,-9.42 -32.29,-11.94 -49.32,-12.01 q -37.78,-0.13 -75.3,-0.15 -0.55,0 -0.55,0.54 l 0.03,99.03 a 0.82,0.82 0 0 0 0.82,0.82 q 38.35,-0.03 76.27,-0.04 c 7.09,0 14.88,-0.79 21.47,-1.72 z" fill="#3c5a40" id="path6"></path></g><g id="g198" transform="matrix(0.9838534,0,0,1.0285859,23.522623,38.980254)"><path d="m 130.98,347.96 c -0.53,8.39 -5.02,10.76 -12.9,9.21 -5.54,-1.09 -6.05,-5.35 -6.05,-10.63 q -0.07,-41.77 0,-81.54 a 1.14,1.11 77.7 0 1 0.63,-1 q 4.95,-2.38 9.57,-1.24 c 6.84,1.69 8.78,8.13 8.82,14.49 q 0.08,11.31 -0.03,21.18 -0.02,1.89 1.16,0.41 7.34,-9.19 19.25,-9.59 c 14.92,-0.51 26.38,8.41 30.13,22.76 3.58,13.66 1.06,31.69 -11.18,40.85 q -9.59,7.18 -21.93,5.64 -10.85,-1.36 -16.8,-10.71 -0.6,-0.94 -0.67,0.17 z m 33.295,-28.539 a 15.37,15.37 0 0 0 -15.923,-14.796 l -2.6182,0.096 a 15.37,15.37 0 0 0 -14.796,15.923 l 0.288,7.8547 a 15.37,15.37 0 0 0 15.923,14.796 l 2.6182,-0.096 a 15.37,15.37 0 0 0 14.796,-15.923 z" fill="#3c5a40" id="path8"></path><path d="m 293.52,289.71 a 0.9,0.9 0 0 0 0.95,0.93 q 6.96,-0.36 13.05,0.22 c 4.48,0.44 5.74,4.37 5.36,8.3 -0.38,4.01 -2.95,6.03 -6.88,6.22 q -5.67,0.27 -11.74,0.01 a 0.95,0.94 1.2 0 0 -0.99,0.94 q -0.01,13.79 0.03,27.06 c 0.01,4.52 0.85,9.61 6.36,10.12 q 5.37,0.5 8.71,-3.52 1.07,-1.29 2.22,-0.07 c 6.9,7.3 1.27,15.58 -6.84,17.8 q -8.98,2.46 -17.15,-0.47 c -9.12,-3.26 -11.72,-12.32 -11.75,-21.33 q -0.05,-15.77 0.03,-29.95 a 0.51,0.51 0 0 0 -0.56,-0.51 c -3.08,0.24 -8.78,0.01 -10.09,-3.68 q -1.26,-3.5 -0.13,-6.99 c 1.26,-3.93 6.46,-4.63 9.84,-4.19 a 0.84,0.83 2.6 0 0 0.95,-0.86 c -0.21,-5.92 -1.33,-16.08 7.41,-16.71 5.12,-0.37 10.2,0.28 10.98,6.5 q 0.51,4.05 0.24,10.18 z" fill="#3c5a40" id="path10"></path><path d="m 348.5,305.45 a 0.66,0.66 0 0 0 -0.68,0.66 q -0.06,13.65 -0.03,26.14 c 0.01,4.13 0.17,10.3 5.57,11.16 q 5.3,0.85 8.42,-2.42 3.11,-3.25 4.88,0.88 0.41,0.94 0.81,1.88 1.88,4.35 -0.88,8.22 c -4.7,6.59 -13.6,7.61 -21.27,6.42 -12.35,-1.93 -15.96,-11.86 -15.99,-22.95 q -0.04,-14.64 0.01,-29.49 a 0.5,0.5 0 0 0 -0.55,-0.5 c -3.6,0.29 -8.99,-0.03 -10.26,-4.2 -0.98,-3.24 -0.63,-8.32 3.05,-9.77 q 2.93,-1.14 7.01,-0.9 a 0.7,0.7 0 0 0 0.75,-0.71 c -0.04,-4.88 -1.18,-14.12 4.95,-16.24 3.77,-1.31 10.27,-1.24 12.46,2.75 2.07,3.77 1.22,9.43 1.33,13.65 a 0.55,0.55 0 0 0 0.56,0.54 q 5.91,-0.15 11.6,0.13 c 3.58,0.17 6.32,1.24 6.98,5.02 1.02,5.84 -1.41,9.6 -7.55,9.73 q -5.72,0.12 -11.17,0 z" fill="#3c5a40" id="path12"></path><path d="m 207.8,329.27 c 2.54,13.38 14.99,18.33 27.1,14.63 q 6.72,-2.06 10.5,-7.89 a 1.42,1.41 19.5 0 1 1.33,-0.63 c 5.84,0.6 9.84,5.25 7.74,11.12 -2.15,6 -10,9.64 -16,11.01 -19.66,4.5 -41.39,-2.17 -46.46,-23.83 -4.49,-19.15 5.1,-39.2 25.29,-43.63 6.4,-1.41 13.96,-1.12 20.19,1.15 q 16.35,5.96 20.12,23.93 0.45,2.12 0.65,8.13 c 0.12,3.55 -1.71,5.34 -4.95,5.31 q -22.22,-0.19 -44.89,-0.04 -0.76,0 -0.62,0.74 z m 0.78,-11.07 32.03,-0.22 a 0.16,0.16 0 0 0 0.16,-0.16 v -0.09 A 15.96,15.55 -0.4 0 0 224.7,302.29 h -0.44 a 15.96,15.55 -0.4 0 0 -15.85,15.66 v 0.09 a 0.16,0.16 0 0 0 0.17,0.16 z" fill="#3c5a40" id="path14"></path><path d="m 391.31,329.06 c 1.29,9.71 9.14,15.75 18.88,15.94 q 12.67,0.24 18.95,-9.25 0.34,-0.52 0.96,-0.43 c 7.14,1.03 11.41,7.49 6.49,13.84 -7.33,9.45 -23.94,10.82 -34.76,8.84 q -18.18,-3.33 -24.79,-19.42 -3.11,-7.6 -2.49,-16.99 c 0.92,-13.73 8.99,-25.75 22,-30.28 10.81,-3.77 23.63,-2.64 33,4.45 7.93,6 11.69,15.19 12.23,25.31 0.16,3.2 0.2,7.41 -4.25,7.42 q -23.18,0.05 -45.74,0.02 a 0.49,0.48 86.3 0 0 -0.48,0.55 z m 0.82,-10.86 31.95,-0.22 a 0.17,0.17 0 0 0 0.17,-0.17 v -0.1 a 15.95,15.55 -0.4 0 0 -16.06,-15.44 h -0.4 a 15.95,15.55 -0.4 0 0 -15.84,15.66 v 0.1 a 0.17,0.17 0 0 0 0.18,0.17 z" fill="#3c5a40" id="path16"></path><path d="m 471.96,300.49 q 4.47,-10.82 14.99,-11.33 c 7.94,-0.38 14.18,4.71 12.89,13.12 q -0.77,4.98 -4.91,7.6 a 1.31,1.29 43.3 0 1 -1.33,0.03 c -1.65,-0.92 -3.25,-2.11 -5.11,-2.49 -13.57,-2.72 -16.56,10.39 -16.61,20.55 q -0.06,12.78 -0.01,20.91 c 0.04,4.76 -2.58,8.13 -7.54,8.55 -5.83,0.49 -11.48,-0.91 -11.51,-7.92 q -0.15,-28.68 -0.02,-56.66 a 1.91,1.9 -10.9 0 1 1.19,-1.75 c 7.98,-3.2 15.94,0.32 17.02,9.26 q 0.23,1.86 0.95,0.13 z" fill="#3c5a40" id="path18"></path></g><g id="g209" transform="translate(0,2.98144)"><path d="m 604.04,594.25 c 0,9.02 -2.23,18.81 -10.02,23.64 q -5.02,3.1 -11.51,3.59 c -9.53,0.7 -21.08,0.91 -28.47,-5.47 q -3.07,-2.65 -5.13,-7.48 -1.63,-3.84 -2.11,-9.26 -0.41,-4.81 -0.41,-9.37 -0.03,-123.06 0.05,-246.17 0,-0.43 -0.08,-0.85 -0.2,-0.97 0.76,-1.6 c 7.88,-5.22 18.93,-6.46 28.12,-5.04 18.55,2.86 26.36,17.8 28.29,35.08 q 0.51,4.52 0.51,10.4 0.03,107.28 0,212.53 z" fill="#59bf1d" id="path20"></path><path d="m 705.73,608.38 q -4.32,10.21 -14.85,12.39 c -6.93,1.43 -16.19,1.41 -23.32,-0.09 q -5.39,-1.13 -9.53,-4.72 -2.96,-2.57 -5.23,-7.8 c -2.03,-4.66 -2.32,-11.47 -2.32,-16.86 q -0.01,-124.4 0.01,-248.69 a 1.74,1.72 75.8 0 1 0.89,-1.52 c 1.69,-0.94 3.39,-2.02 5.24,-2.65 19.37,-6.6 40.66,-1.85 47.82,19.15 3.81,11.19 3.67,19.49 3.67,33.66 q 0.04,102.09 0.1,199.75 c 0,5.27 -0.35,12.35 -2.48,17.38 z" fill="#59bf1d" id="path22"></path><path d="m 183.53,573.51 c 0.48,0.11 0.76,0.05 1.23,0.29 14.94,7.75 34.29,6.65 49.3,0.14 1.8,-0.78 3.12,-2.1 4.9,-2.86 q 1.08,-0.46 2.06,-1.22 3.85,-2.98 6.34,-5.67 5.06,-5.46 8.91,-12.32 0.23,-0.42 0.25,-0.91 0.03,-0.66 0.57,-1.06 a 1.18,1.15 -15.9 0 0 0.47,-0.82 c 0.21,-2.47 2.04,-4.09 4.56,-3.85 q 8.12,0.77 14.41,3.96 13.38,6.78 14.46,20.65 0.5,6.28 -2.27,12.96 -2.95,7.15 -6.72,11.69 c -10.99,13.21 -26.3,22.53 -42.9,26.97 q -27.27,7.28 -55.1,2.31 -12.99,-2.31 -25.55,-8.21 -0.3,-0.15 -0.63,-0.15 -0.53,0.01 -0.8,-0.42 -0.28,-0.43 -0.79,-0.49 -2.09,-0.26 -3.48,-1.8 -0.34,-0.37 -0.8,-0.56 -2,-0.81 -3.81,-2.01 c -3.92,-2.61 -8.27,-5.35 -11.67,-8.68 -2.61,-2.57 -5.76,-4.72 -7.84,-7.59 -1.48,-2.03 -3.4,-3.41 -4.88,-5.43 q -10.46,-14.23 -15.03,-27.2 -12.6,-35.79 -2.78,-72.45 2.8,-10.45 8.58,-21.14 0.86,-1.6 1.86,-3.11 c 0.92,-1.39 1.45,-2.89 2.42,-4.23 q 7.33,-10.15 12.91,-15.55 26.14,-25.24 64.54,-28.46 24.18,-2.02 47.83,5.06 1.82,0.55 3.6,1.28 c 6.8,2.78 13.25,5.79 19.15,9.82 q 9.95,6.81 16.48,16.14 c 7.56,10.8 11.8,25.71 2.11,36.81 q -3.26,3.74 -9.08,6.7 -1.34,0.68 -2.85,1.24 -1.51,0.55 -2.96,1.09 -4.81,1.79 -10.84,1.67 -0.56,-0.01 -0.81,-0.52 c -1.44,-2.88 -2.59,-5.87 -4.22,-8.67 q -4.75,-8.12 -12.23,-14.28 c -0.83,-0.68 -2,-0.89 -2.51,-1.75 q -0.28,-0.49 -0.82,-0.68 -1.49,-0.52 -2.85,-1.45 -1.37,-0.94 -2.8,-1.52 -19.28,-7.75 -39.82,-2.95 -2.67,0.63 -5.15,1.8 c -2.33,1.11 -4.63,1.73 -6.86,3.11 q -16.58,10.3 -22.81,26.75 -8.88,23.47 -0.37,48.29 c 3.43,10 10.39,19.15 19.01,25.47 q 1.98,1.45 4.17,2.4 0.73,0.32 1.2,0.94 a 1.34,1.28 77.2 0 0 0.71,0.47 z" fill="#59bf1d" id="path24"></path><path d="m 447.75,590.88 q -4.64,7.09 -10.11,12.26 -6.01,5.67 -15.73,11.26 -2.88,1.65 -5.82,2.68 c -2.42,0.85 -4.45,2.2 -6.96,2.81 -3.19,0.77 -6.11,1.8 -9.41,2.47 q -14.31,2.93 -28.73,1.88 -13.65,-1 -25.35,-5.88 -23.93,-9.99 -31.1,-34.25 -5.41,-18.31 1.45,-37.74 0.71,-2.01 1.97,-3.91 c 1.05,-1.57 1.59,-3.47 2.82,-4.93 2.02,-2.41 3.56,-5.01 5.91,-7.17 q 8.84,-8.09 18.36,-12.71 7.51,-3.64 14.98,-6.06 15.11,-4.89 33.26,-7.32 25.93,-3.47 52.94,-3.3 0.57,0.01 0.56,-0.56 -0.07,-9.42 -2.61,-18.36 -0.77,-2.71 -2.11,-4.88 c -1.39,-2.23 -2.42,-4.37 -4.27,-6.36 q -4.89,-5.25 -11.67,-7.88 c -1.53,-0.59 -2.91,-1.41 -4.56,-1.8 q -17.56,-4.06 -33.62,0.43 -19.82,5.54 -29.56,23.46 -0.95,1.74 -2,3.01 -0.32,0.4 -0.83,0.44 -15.88,1.33 -27.34,-5.66 -3.13,-1.91 -6,-6.57 c -0.9,-1.46 -1.07,-2.91 -1.8,-4.36 q -0.43,-0.85 -0.53,-1.83 -1.49,-13.65 6.85,-25.03 c 8.32,-11.32 21.64,-18.75 35.16,-22.87 q 16.44,-5.01 35.85,-5.99 17.25,-0.87 31.42,0.73 16.52,1.87 29.72,7.1 19.32,7.65 31.02,23.88 5.55,7.71 8.75,17.54 4.85,14.89 4.92,28.61 0.36,73.14 -0.11,121.22 -0.01,0.92 -0.06,1.88 -0.02,0.49 -0.43,0.75 -4.46,2.88 -10.61,4.07 -11.52,2.22 -21.73,-0.58 -6.96,-1.9 -11.88,-6.94 -5.02,-5.13 -7.55,-12.98 -1.53,-4.77 -2.49,-10.36 -0.23,-1.32 -0.97,-0.2 z m -70.66,-48.59 q -11.39,7.8 -10.91,21.41 0.44,12.18 10.56,18.58 6.9,4.37 17.28,4.94 13.99,0.76 25.72,-3.99 11.12,-4.51 18.4,-13.62 8.05,-10.08 8.55,-23.88 0.28,-7.75 0.01,-15.33 a 0.35,0.34 89.1 0 0 -0.34,-0.34 q -22.11,-0.49 -42.92,2.99 c -6.73,1.13 -13.59,2.96 -19.87,5.64 q -3.26,1.4 -6.48,3.6 z" fill="#59bf1d" id="path26"></path></g></svg>