<svg xmlns="http://www.w3.org/2000/svg" xmlns:xlink="http://www.w3.org/1999/xlink" width="512" zoomAndPan="magnify" viewBox="0 0 384 383.999986" height="512" preserveAspectRatio="xMidYMid meet" version="1.0"><defs><clipPath id="2caf1a5744"><path d="M 17.855469 11.546875 L 365.855469 11.546875 L 365.855469 359.546875 L 17.855469 359.546875 Z M 17.855469 11.546875 " clip-rule="nonzero"/></clipPath></defs><path stroke-linecap="butt" transform="matrix(0.679687, 0, 0, 0.679687, 17.857348, 11.546852)" fill="none" stroke-linejoin="miter" d="M 186.00874 185.212688 L 185.951269 194.741424 " stroke="#38553d" stroke-width="2" stroke-opacity="0.529" stroke-miterlimit="4"/><path stroke-linecap="butt" transform="matrix(0.679687, 0, 0, 0.679687, 17.857348, 11.546852)" fill="none" stroke-linejoin="miter" d="M 185.951269 194.741424 L 186.140924 313.109248 " stroke="#4a8d2e" stroke-width="2" stroke-opacity="1" stroke-miterlimit="4"/><path stroke-linecap="butt" transform="matrix(0.679687, 0, 0, 0.679687, 17.857348, 11.546852)" fill="none" stroke-linejoin="miter" d="M 186.96851 335.442583 C 190.428281 366.649481 203.025983 392.839138 224.750122 414.011553 C 245.968514 434.695462 271.715642 446.712704 301.991506 450.051785 C 307.319093 450.637992 313.980013 450.40236 320.031737 450.931095 " stroke="#4a8d2e" stroke-width="2" stroke-opacity="1" stroke-miterlimit="4"/><path stroke-linecap="butt" transform="matrix(0.679687, 0, 0, 0.679687, 17.857348, 11.546852)" fill="none" stroke-linejoin="miter" d="M 320.031737 450.931095 C 304.370817 458.764429 288.278862 463.505809 271.750125 465.149487 C 235.031732 468.80466 201.727132 460.160981 171.84782 439.218451 C 166.531728 435.494313 161.255865 431.126496 156.020233 426.120749 C 127.129426 398.448334 111.14092 361.080515 111.169655 321.000053 C 111.198391 286.327637 111.198391 251.643727 111.169655 216.948322 " stroke="#38553d" stroke-width="2" stroke-opacity="0.529" stroke-miterlimit="4"/><path stroke-linecap="butt" transform="matrix(0.679687, 0, 0, 0.679687, 17.857348, 11.546852)" fill="none" stroke-linejoin="miter" d="M 320.031737 450.931095 C 338.261623 441.827647 353.796107 429.563278 366.629441 414.132243 C 386.319097 390.459827 398.370822 360.8104 399.847834 329.781663 C 400.457029 317.114995 399.824845 305.735684 397.962776 295.649477 C 394.405305 276.436832 387.508753 258.942578 377.267373 243.160968 C 362.819096 220.885104 343.824842 203.839126 320.301852 192.017286 C 278.031734 170.7874 227.577708 171.82763 185.951269 194.741424 " stroke="#53b51b" stroke-width="2" stroke-opacity="0.529" stroke-miterlimit="4"/><g clip-path="url(#2caf1a5744)"><path fill="#010101" d="M 17.855469 11.546875 L 365.855469 11.546875 L 365.855469 359.546875 L 17.855469 359.546875 Z M 93.417969 159.003906 C 93.207031 162.078125 93.042969 165.148438 92.929688 168.222656 C 92.925781 168.335938 92.890625 168.34375 92.832031 168.25 C 92.800781 168.203125 92.746094 168.191406 92.664062 168.214844 C 92.582031 168.238281 92.542969 168.292969 92.542969 168.378906 L 92.542969 168.757812 C 92.542969 168.945312 92.460938 169.085938 92.304688 169.179688 C 91.640625 169.574219 91.265625 170.101562 91.175781 170.761719 C 91.144531 171.011719 91.015625 171.195312 90.789062 171.308594 C 90.507812 171.449219 90.414062 171.667969 90.507812 171.972656 C 90.546875 172.089844 90.542969 172.203125 90.5 172.316406 C 90.457031 172.429688 90.382812 172.515625 90.277344 172.578125 C 89.535156 173.019531 89.144531 173.578125 89.109375 174.265625 C 89.101562 174.449219 89.011719 174.578125 88.84375 174.652344 C 88.476562 174.808594 88.351562 175.085938 88.46875 175.472656 C 88.5 175.574219 88.492188 175.671875 88.445312 175.765625 C 88.402344 175.859375 88.328125 175.925781 88.230469 175.964844 C 87.8125 176.136719 87.660156 176.4375 87.785156 176.875 C 87.839844 177.074219 87.773438 177.214844 87.585938 177.296875 C 87.125 177.492188 86.96875 177.832031 87.117188 178.320312 C 87.160156 178.472656 87.105469 178.570312 86.960938 178.613281 C 86.515625 178.757812 86.34375 179.0625 86.4375 179.523438 C 86.488281 179.769531 86.402344 179.941406 86.179688 180.042969 C 85.777344 180.226562 85.632812 180.542969 85.75 180.992188 C 85.773438 181.070312 85.761719 181.144531 85.726562 181.21875 C 85.6875 181.289062 85.628906 181.335938 85.554688 181.359375 C 85.152344 181.492188 84.992188 181.765625 85.078125 182.183594 C 85.128906 182.414062 85.054688 182.59375 84.855469 182.71875 C 84.390625 183.023438 84.234375 183.476562 84.378906 184.078125 C 84.4375 184.320312 84.382812 184.527344 84.207031 184.703125 L 83.238281 185.722656 C 83.097656 185.867188 83.027344 186.042969 83.027344 186.246094 L 83.027344 186.945312 C 83.027344 187.199219 82.921875 187.402344 82.71875 187.550781 C 82.316406 187.84375 82.195312 188.242188 82.359375 188.75 C 82.460938 189.054688 82.378906 189.308594 82.121094 189.503906 C 81.65625 189.851562 81.511719 190.339844 81.6875 190.964844 C 81.753906 191.21875 81.679688 191.414062 81.457031 191.554688 C 80.964844 191.871094 80.816406 192.351562 81.007812 192.996094 C 81.089844 193.269531 81.003906 193.472656 80.753906 193.609375 C 80.300781 193.847656 80.15625 194.234375 80.320312 194.761719 C 80.433594 195.128906 80.339844 195.429688 80.035156 195.660156 C 79.609375 195.992188 79.480469 196.449219 79.648438 197.035156 C 79.730469 197.308594 79.648438 197.527344 79.402344 197.6875 C 78.921875 198 78.78125 198.484375 78.976562 199.140625 C 79.03125 199.332031 78.988281 199.5 78.847656 199.644531 C 78.78125 199.707031 78.710938 199.753906 78.628906 199.785156 C 78.386719 199.886719 78.269531 200.066406 78.269531 200.328125 L 78.269531 202.027344 C 78.269531 202.28125 78.144531 202.441406 77.902344 202.503906 C 77.832031 202.523438 77.78125 202.5625 77.746094 202.628906 C 77.640625 202.78125 77.589844 202.949219 77.589844 203.128906 C 77.582031 203.863281 77.589844 204.640625 77.601562 205.460938 C 77.605469 205.710938 77.484375 205.859375 77.234375 205.902344 C 77.164062 205.917969 77.105469 205.957031 77.066406 206.019531 C 76.957031 206.171875 76.902344 206.339844 76.902344 206.523438 C 76.902344 207.042969 76.910156 207.589844 76.921875 208.167969 C 76.925781 208.421875 76.804688 208.574219 76.554688 208.621094 C 76.476562 208.640625 76.417969 208.683594 76.378906 208.75 C 76.277344 208.90625 76.230469 209.070312 76.230469 209.246094 C 76.222656 210.203125 76.226562 211.207031 76.234375 212.257812 C 76.238281 212.507812 76.121094 212.65625 75.875 212.699219 C 75.804688 212.714844 75.746094 212.753906 75.707031 212.816406 C 75.601562 212.980469 75.550781 213.152344 75.550781 213.339844 C 75.542969 214.5 75.546875 215.730469 75.554688 217.03125 C 75.554688 217.265625 75.441406 217.410156 75.214844 217.464844 C 75.152344 217.484375 75.097656 217.511719 75.046875 217.554688 C 74.816406 217.742188 74.820312 217.925781 75.066406 218.097656 C 75.148438 218.152344 75.230469 218.207031 75.316406 218.265625 C 75.695312 218.523438 75.664062 218.707031 75.222656 218.8125 C 75.167969 218.824219 75.121094 218.855469 75.082031 218.90625 C 74.933594 219.078125 74.863281 219.273438 74.863281 219.496094 C 74.867188 222.15625 74.871094 224.738281 74.871094 227.246094 C 74.871094 227.46875 74.761719 227.597656 74.542969 227.640625 C 74.457031 227.65625 74.390625 227.703125 74.339844 227.777344 C 74.230469 227.933594 74.179688 228.109375 74.183594 228.304688 C 74.195312 230.15625 74.195312 232.015625 74.175781 233.886719 C 74.175781 234.070312 74.226562 234.238281 74.332031 234.390625 C 74.378906 234.449219 74.433594 234.488281 74.503906 234.503906 C 74.761719 234.578125 74.886719 234.746094 74.882812 235.015625 C 74.863281 237.398438 74.859375 239.730469 74.871094 242.007812 C 74.871094 242.210938 74.925781 242.394531 75.03125 242.558594 C 75.078125 242.625 75.140625 242.671875 75.214844 242.695312 C 75.667969 242.820312 75.691406 243.003906 75.285156 243.246094 C 75.1875 243.300781 75.101562 243.359375 75.019531 243.421875 C 74.789062 243.597656 74.792969 243.765625 75.039062 243.925781 L 75.316406 244.101562 C 75.472656 244.207031 75.550781 244.347656 75.550781 244.53125 L 75.550781 247.5 C 75.550781 247.640625 75.582031 247.773438 75.652344 247.894531 C 75.714844 248.011719 75.804688 248.09375 75.921875 248.140625 C 76.125 248.210938 76.230469 248.359375 76.230469 248.582031 L 76.230469 251.570312 C 76.230469 251.710938 76.261719 251.847656 76.332031 251.972656 C 76.390625 252.089844 76.476562 252.167969 76.597656 252.210938 C 76.804688 252.289062 76.910156 252.4375 76.910156 252.660156 L 76.910156 254.976562 C 76.910156 255.117188 76.941406 255.25 77.011719 255.378906 C 77.070312 255.492188 77.15625 255.566406 77.277344 255.609375 C 77.484375 255.6875 77.589844 255.835938 77.589844 256.058594 L 77.589844 258.339844 C 77.589844 258.492188 77.621094 258.632812 77.691406 258.761719 C 77.75 258.875 77.835938 258.957031 77.949219 259 C 78.160156 259.078125 78.269531 259.230469 78.269531 259.460938 L 78.269531 261.324219 C 78.269531 261.496094 78.347656 261.613281 78.511719 261.671875 L 78.710938 261.738281 C 78.828125 261.78125 78.914062 261.859375 78.964844 261.972656 C 79.019531 262.085938 79.027344 262.203125 78.988281 262.324219 C 78.769531 262.992188 78.910156 263.484375 79.402344 263.804688 C 79.644531 263.960938 79.722656 264.175781 79.640625 264.453125 C 79.46875 265.066406 79.613281 265.527344 80.070312 265.832031 C 80.265625 265.957031 80.355469 266.140625 80.339844 266.375 C 80.308594 266.863281 80.292969 267.355469 80.285156 267.851562 C 80.285156 268.050781 80.34375 268.226562 80.464844 268.386719 C 80.511719 268.449219 80.578125 268.488281 80.652344 268.503906 C 80.925781 268.550781 81.03125 268.714844 80.972656 268.984375 C 80.882812 269.394531 81.011719 269.683594 81.359375 269.855469 C 81.503906 269.925781 81.605469 270.03125 81.664062 270.175781 C 81.726562 270.320312 81.734375 270.464844 81.6875 270.617188 C 81.496094 271.226562 81.652344 271.679688 82.15625 271.96875 C 82.308594 272.058594 82.378906 272.191406 82.367188 272.371094 C 82.351562 272.566406 82.445312 272.640625 82.644531 272.59375 C 82.898438 272.53125 83.027344 272.628906 83.027344 272.894531 L 83.027344 274.753906 C 83.027344 275.019531 83.148438 275.199219 83.394531 275.292969 C 83.699219 275.417969 83.808594 275.640625 83.71875 275.957031 C 83.527344 276.636719 83.699219 277.132812 84.230469 277.441406 C 84.371094 277.523438 84.417969 277.640625 84.378906 277.800781 C 84.265625 278.25 84.421875 278.5625 84.855469 278.746094 C 85.050781 278.832031 85.121094 278.976562 85.066406 279.179688 C 84.945312 279.609375 85.09375 279.914062 85.507812 280.089844 C 85.714844 280.183594 85.792969 280.335938 85.746094 280.554688 C 85.644531 280.984375 85.796875 281.285156 86.199219 281.457031 C 86.402344 281.542969 86.480469 281.695312 86.425781 281.914062 C 86.3125 282.339844 86.457031 282.636719 86.867188 282.808594 C 87.074219 282.894531 87.152344 283.050781 87.105469 283.273438 C 87.007812 283.695312 87.152344 283.992188 87.539062 284.167969 C 87.652344 284.222656 87.730469 284.304688 87.777344 284.417969 C 87.828125 284.53125 87.832031 284.644531 87.789062 284.761719 C 87.679688 285.085938 87.785156 285.3125 88.101562 285.433594 C 88.378906 285.542969 88.492188 285.742188 88.441406 286.03125 C 88.371094 286.429688 88.519531 286.710938 88.882812 286.875 C 89.125 286.980469 89.210938 287.15625 89.144531 287.40625 C 89.039062 287.789062 89.171875 288.058594 89.542969 288.214844 C 89.703125 288.277344 89.785156 288.394531 89.789062 288.566406 C 89.816406 289.265625 90.199219 289.820312 90.9375 290.238281 C 91.046875 290.300781 91.121094 290.390625 91.167969 290.503906 C 91.214844 290.617188 91.21875 290.734375 91.183594 290.851562 C 91.085938 291.175781 91.183594 291.40625 91.472656 291.539062 C 91.667969 291.625 91.785156 291.773438 91.820312 291.984375 C 91.933594 292.730469 92.34375 293.308594 93.042969 293.726562 C 93.167969 293.796875 93.226562 293.90625 93.226562 294.046875 C 93.226562 294.117188 93.222656 294.191406 93.214844 294.269531 C 93.1875 294.507812 93.257812 294.710938 93.433594 294.875 L 94.453125 295.839844 C 94.539062 295.921875 94.582031 296.019531 94.582031 296.140625 L 94.582031 296.480469 C 94.582031 296.636719 94.636719 296.769531 94.75 296.878906 L 95.871094 297.933594 C 95.953125 298.011719 95.980469 298.101562 95.953125 298.210938 C 95.933594 298.289062 95.925781 298.367188 95.925781 298.449219 C 95.925781 298.644531 96 298.808594 96.144531 298.945312 L 97.171875 299.917969 C 97.257812 300 97.300781 300.097656 97.300781 300.21875 L 97.300781 300.535156 C 97.300781 300.695312 97.355469 300.828125 97.46875 300.9375 L 99.230469 302.671875 C 99.296875 302.738281 99.332031 302.820312 99.339844 302.914062 C 99.339844 302.996094 99.332031 303.078125 99.316406 303.160156 C 99.289062 303.339844 99.34375 303.496094 99.472656 303.621094 L 102.609375 306.734375 C 102.695312 306.816406 102.738281 306.917969 102.738281 307.035156 L 102.738281 307.3125 C 102.738281 307.472656 102.792969 307.605469 102.898438 307.714844 L 115.269531 320.085938 C 115.367188 320.179688 115.480469 320.21875 115.609375 320.207031 C 115.683594 320.199219 115.757812 320.191406 115.835938 320.191406 C 115.988281 320.191406 116.117188 320.246094 116.222656 320.355469 L 119.335938 323.484375 C 119.417969 323.5625 119.515625 323.605469 119.632812 323.605469 L 119.960938 323.605469 C 120.097656 323.605469 120.210938 323.652344 120.300781 323.746094 L 122.039062 325.515625 C 122.121094 325.601562 122.222656 325.644531 122.339844 325.644531 L 122.746094 325.644531 C 122.855469 325.644531 122.949219 325.683594 123.027344 325.765625 L 124.058594 326.882812 C 124.164062 326.988281 124.289062 327.03125 124.433594 327.011719 C 124.503906 327 124.578125 326.996094 124.65625 326.988281 C 124.8125 326.980469 124.941406 327.03125 125.050781 327.140625 L 126.796875 328.914062 C 126.878906 329 126.980469 329.042969 127.097656 329.042969 L 127.484375 329.042969 C 127.679688 329.042969 127.828125 329.125 127.925781 329.292969 C 128.3125 329.945312 128.832031 330.316406 129.488281 330.402344 C 129.742188 330.4375 129.925781 330.570312 130.039062 330.796875 C 130.179688 331.078125 130.402344 331.167969 130.707031 331.074219 C 130.820312 331.039062 130.933594 331.042969 131.046875 331.085938 C 131.160156 331.128906 131.25 331.203125 131.3125 331.304688 C 131.75 332.042969 132.316406 332.433594 133.011719 332.476562 C 133.171875 332.484375 133.289062 332.5625 133.355469 332.710938 C 133.539062 333.105469 133.839844 333.242188 134.265625 333.113281 C 134.457031 333.054688 134.585938 333.121094 134.65625 333.3125 C 134.796875 333.726562 135.085938 333.882812 135.523438 333.78125 C 135.765625 333.726562 135.949219 333.804688 136.070312 334.019531 C 136.449219 334.6875 136.976562 335.070312 137.644531 335.167969 C 137.890625 335.203125 138.070312 335.328125 138.1875 335.546875 C 138.347656 335.835938 138.589844 335.933594 138.910156 335.832031 C 139.023438 335.800781 139.136719 335.808594 139.242188 335.859375 C 139.351562 335.910156 139.425781 335.988281 139.472656 336.097656 C 139.636719 336.476562 139.925781 336.625 140.34375 336.539062 C 140.632812 336.476562 140.8125 336.589844 140.878906 336.878906 C 140.945312 337.140625 141.105469 337.238281 141.363281 337.171875 C 141.683594 337.089844 141.945312 337.183594 142.144531 337.449219 C 142.472656 337.890625 142.917969 338.027344 143.484375 337.863281 C 143.828125 337.769531 144.085938 337.878906 144.253906 338.199219 C 144.429688 338.527344 144.710938 338.65625 145.09375 338.578125 C 145.351562 338.523438 145.53125 338.621094 145.632812 338.871094 C 145.777344 339.234375 146.039062 339.351562 146.421875 339.230469 C 146.601562 339.171875 146.742188 339.222656 146.839844 339.386719 C 147.179688 339.933594 147.699219 340.101562 148.398438 339.882812 C 148.519531 339.84375 148.640625 339.855469 148.753906 339.917969 C 148.867188 339.976562 148.945312 340.066406 148.984375 340.1875 C 149.085938 340.519531 149.3125 340.648438 149.65625 340.578125 C 149.949219 340.519531 150.179688 340.613281 150.34375 340.863281 C 150.621094 341.296875 151.027344 341.429688 151.550781 341.261719 C 151.863281 341.160156 152.121094 341.242188 152.320312 341.507812 C 152.664062 341.96875 153.148438 342.113281 153.769531 341.9375 C 154.027344 341.867188 154.226562 341.945312 154.367188 342.167969 C 154.679688 342.652344 155.160156 342.800781 155.808594 342.617188 C 156.066406 342.542969 156.265625 342.617188 156.40625 342.839844 C 156.71875 343.332031 157.195312 343.484375 157.839844 343.296875 C 158.097656 343.21875 158.296875 343.292969 158.4375 343.511719 C 158.777344 344.046875 159.320312 344.1875 160.0625 343.925781 C 160.226562 343.867188 160.347656 343.914062 160.429688 344.070312 L 160.558594 344.308594 C 160.6875 344.554688 160.894531 344.675781 161.167969 344.675781 L 162.800781 344.675781 C 163.058594 344.675781 163.21875 344.800781 163.285156 345.050781 C 163.296875 345.109375 163.332031 345.15625 163.386719 345.191406 C 163.546875 345.300781 163.71875 345.355469 163.902344 345.355469 C 164.417969 345.363281 164.960938 345.359375 165.53125 345.339844 C 165.792969 345.332031 165.945312 345.457031 165.996094 345.714844 C 166.007812 345.78125 166.046875 345.835938 166.105469 345.871094 C 166.265625 345.980469 166.445312 346.035156 166.632812 346.035156 C 167.359375 346.039062 168.121094 346.035156 168.925781 346.019531 C 169.191406 346.015625 169.347656 346.144531 169.394531 346.410156 C 169.40625 346.484375 169.449219 346.542969 169.523438 346.578125 C 169.679688 346.664062 169.847656 346.707031 170.019531 346.707031 C 170.976562 346.722656 171.980469 346.722656 173.03125 346.707031 C 173.273438 346.703125 173.421875 346.820312 173.472656 347.0625 C 173.484375 347.132812 173.523438 347.191406 173.582031 347.230469 C 173.75 347.339844 173.925781 347.394531 174.117188 347.394531 C 175.277344 347.398438 176.503906 347.394531 177.792969 347.386719 C 178.039062 347.382812 178.183594 347.5 178.230469 347.742188 C 178.242188 347.816406 178.28125 347.875 178.34375 347.917969 C 178.5 348.019531 178.699219 348.074219 178.941406 348.074219 L 186.589844 348.074219 C 186.84375 348.074219 187.003906 348.195312 187.066406 348.441406 C 187.082031 348.503906 187.121094 348.554688 187.175781 348.589844 C 187.34375 348.703125 187.527344 348.761719 187.730469 348.761719 C 190.703125 348.746094 193.6875 348.746094 196.675781 348.761719 C 196.867188 348.761719 197.042969 348.707031 197.207031 348.605469 C 197.265625 348.5625 197.304688 348.507812 197.320312 348.433594 C 197.390625 348.195312 197.546875 348.074219 197.796875 348.074219 L 205.53125 348.074219 C 205.671875 348.074219 205.808594 348.042969 205.933594 347.976562 C 206.0625 347.914062 206.148438 347.820312 206.191406 347.699219 C 206.269531 347.496094 206.414062 347.394531 206.628906 347.394531 L 210.277344 347.394531 C 210.421875 347.394531 210.558594 347.363281 210.691406 347.296875 C 210.820312 347.238281 210.90625 347.148438 210.949219 347.027344 C 211.023438 346.820312 211.167969 346.714844 211.390625 346.714844 L 214.363281 346.714844 C 214.503906 346.714844 214.636719 346.683594 214.769531 346.617188 C 214.898438 346.558594 214.984375 346.46875 215.027344 346.347656 C 215.101562 346.140625 215.246094 346.035156 215.46875 346.035156 L 217.800781 346.035156 C 217.945312 346.035156 218.082031 345.996094 218.207031 345.917969 C 218.3125 345.855469 218.382812 345.765625 218.417969 345.652344 C 218.492188 345.457031 218.632812 345.355469 218.839844 345.355469 L 220.527344 345.355469 C 220.667969 345.355469 220.796875 345.320312 220.914062 345.246094 C 221.023438 345.183594 221.101562 345.09375 221.144531 344.972656 C 221.21875 344.777344 221.359375 344.675781 221.566406 344.675781 L 223.457031 344.675781 C 223.628906 344.675781 223.742188 344.59375 223.800781 344.429688 L 223.878906 344.226562 C 223.972656 343.960938 224.15625 343.867188 224.429688 343.953125 C 225.117188 344.171875 225.621094 344.03125 225.945312 343.527344 C 226.09375 343.300781 226.296875 343.222656 226.554688 343.296875 C 227.199219 343.480469 227.675781 343.332031 227.988281 342.847656 C 228.132812 342.613281 228.339844 342.535156 228.609375 342.617188 C 229.242188 342.800781 229.710938 342.652344 230.015625 342.167969 C 230.164062 341.933594 230.375 341.855469 230.648438 341.9375 C 231.277344 342.121094 231.746094 341.976562 232.054688 341.5 C 232.207031 341.261719 232.417969 341.179688 232.6875 341.257812 C 233.316406 341.4375 233.785156 341.292969 234.09375 340.820312 C 234.238281 340.605469 234.433594 340.523438 234.683594 340.578125 C 235.050781 340.652344 235.304688 340.519531 235.4375 340.175781 C 235.484375 340.054688 235.566406 339.964844 235.683594 339.910156 C 235.804688 339.851562 235.925781 339.84375 236.050781 339.882812 C 236.714844 340.101562 237.210938 339.9375 237.539062 339.394531 C 237.648438 339.214844 237.800781 339.160156 237.996094 339.222656 C 238.355469 339.351562 238.605469 339.242188 238.742188 338.898438 C 238.851562 338.628906 239.046875 338.523438 239.332031 338.578125 C 239.699219 338.644531 239.96875 338.523438 240.136719 338.203125 C 240.304688 337.878906 240.566406 337.765625 240.925781 337.863281 C 241.519531 338.042969 241.964844 337.886719 242.261719 337.402344 C 242.390625 337.195312 242.570312 337.125 242.800781 337.199219 C 243.140625 337.304688 243.371094 337.191406 243.492188 336.859375 C 243.597656 336.589844 243.789062 336.484375 244.070312 336.539062 C 244.480469 336.621094 244.761719 336.472656 244.921875 336.089844 C 244.96875 335.984375 245.042969 335.90625 245.148438 335.855469 C 245.253906 335.808594 245.359375 335.800781 245.472656 335.832031 C 245.828125 335.941406 246.082031 335.832031 246.226562 335.5 C 246.320312 335.289062 246.480469 335.183594 246.707031 335.171875 C 247.300781 335.144531 247.785156 334.820312 248.164062 334.195312 C 248.320312 333.929688 248.550781 333.8125 248.855469 333.835938 C 249.253906 333.859375 249.53125 333.707031 249.683594 333.371094 C 249.792969 333.140625 249.96875 333.058594 250.207031 333.121094 C 250.601562 333.226562 250.875 333.089844 251.023438 332.710938 C 251.089844 332.558594 251.203125 332.480469 251.363281 332.476562 C 252.066406 332.449219 252.632812 332.0625 253.0625 331.320312 C 253.195312 331.089844 253.386719 331.011719 253.640625 331.089844 C 253.976562 331.183594 254.214844 331.082031 254.355469 330.78125 C 254.441406 330.59375 254.585938 330.480469 254.789062 330.449219 C 255.550781 330.328125 256.140625 329.90625 256.558594 329.183594 C 256.609375 329.089844 256.691406 329.042969 256.800781 329.042969 L 257.148438 329.042969 C 257.359375 329.042969 257.542969 328.964844 257.691406 328.8125 L 259.34375 327.132812 C 259.425781 327.046875 259.523438 327.003906 259.640625 327.003906 L 259.96875 327.003906 C 260.128906 327.003906 260.261719 326.945312 260.371094 326.832031 L 261.382812 325.757812 C 261.488281 325.652344 261.613281 325.609375 261.761719 325.636719 C 261.820312 325.652344 261.878906 325.65625 261.933594 325.65625 C 262.125 325.652344 262.285156 325.585938 262.414062 325.453125 L 264.140625 323.691406 C 264.195312 323.640625 264.261719 323.609375 264.339844 323.605469 C 264.402344 323.601562 264.46875 323.601562 264.535156 323.613281 C 264.773438 323.632812 264.972656 323.5625 265.140625 323.394531 L 268.191406 320.328125 C 268.292969 320.230469 268.410156 320.1875 268.546875 320.207031 C 268.628906 320.214844 268.707031 320.21875 268.785156 320.214844 C 268.929688 320.207031 269.054688 320.15625 269.15625 320.050781 L 281.535156 307.679688 C 281.617188 307.59375 281.65625 307.492188 281.65625 307.378906 L 281.65625 307.101562 C 281.65625 306.945312 281.714844 306.808594 281.828125 306.699219 L 284.941406 303.601562 C 285.039062 303.503906 285.082031 303.382812 285.0625 303.242188 C 285.054688 303.171875 285.046875 303.105469 285.042969 303.039062 C 285.039062 302.882812 285.089844 302.753906 285.199219 302.644531 L 286.980469 300.890625 C 287.082031 300.789062 287.125 300.667969 287.101562 300.523438 C 287.09375 300.449219 287.085938 300.378906 287.082031 300.3125 C 287.074219 300.152344 287.125 300.023438 287.238281 299.917969 L 288.359375 298.851562 C 288.464844 298.75 288.5 298.632812 288.46875 298.496094 C 288.449219 298.425781 288.4375 298.351562 288.433594 298.273438 C 288.433594 298.113281 288.492188 297.980469 288.605469 297.871094 L 289.71875 296.8125 C 289.824219 296.714844 289.859375 296.597656 289.828125 296.457031 C 289.8125 296.390625 289.804688 296.324219 289.800781 296.253906 C 289.785156 296.09375 289.835938 295.960938 289.949219 295.851562 L 291.003906 294.828125 C 291.117188 294.71875 291.171875 294.585938 291.171875 294.425781 L 291.171875 294.101562 C 291.171875 293.90625 291.257812 293.757812 291.425781 293.65625 C 292.074219 293.273438 292.441406 292.753906 292.53125 292.101562 C 292.570312 291.84375 292.703125 291.65625 292.933594 291.539062 C 293.207031 291.398438 293.296875 291.179688 293.210938 290.890625 C 293.136719 290.621094 293.21875 290.410156 293.457031 290.257812 C 294.1875 289.820312 294.570312 289.261719 294.605469 288.582031 C 294.613281 288.398438 294.703125 288.273438 294.871094 288.207031 C 295.238281 288.042969 295.363281 287.765625 295.246094 287.371094 C 295.214844 287.273438 295.222656 287.175781 295.265625 287.085938 C 295.308594 286.992188 295.378906 286.925781 295.476562 286.886719 C 295.902344 286.714844 296.054688 286.410156 295.929688 285.96875 C 295.875 285.777344 295.941406 285.636719 296.128906 285.554688 C 296.589844 285.355469 296.746094 285.011719 296.597656 284.515625 C 296.554688 284.375 296.605469 284.28125 296.738281 284.238281 C 297.199219 284.09375 297.375 283.785156 297.269531 283.3125 C 297.222656 283.078125 297.308594 282.910156 297.527344 282.808594 C 297.957031 282.621094 298.101562 282.292969 297.957031 281.824219 C 297.910156 281.664062 297.964844 281.5625 298.121094 281.511719 C 298.558594 281.371094 298.730469 281.074219 298.628906 280.613281 C 298.578125 280.371094 298.671875 280.195312 298.902344 280.085938 C 299.3125 279.898438 299.453125 279.578125 299.324219 279.125 C 299.269531 278.949219 299.328125 278.832031 299.507812 278.78125 C 299.917969 278.648438 300.078125 278.371094 299.988281 277.945312 C 299.941406 277.722656 300.015625 277.546875 300.207031 277.421875 C 300.703125 277.097656 300.859375 276.621094 300.667969 275.984375 C 300.574219 275.679688 300.671875 275.460938 300.96875 275.339844 C 301.304688 275.195312 301.429688 274.945312 301.347656 274.585938 C 301.285156 274.328125 301.367188 274.136719 301.601562 274.007812 C 302.042969 273.761719 302.1875 273.386719 302.035156 272.878906 C 301.917969 272.488281 302.019531 272.167969 302.347656 271.914062 C 302.746094 271.605469 302.867188 271.183594 302.714844 270.644531 C 302.609375 270.285156 302.722656 270.019531 303.054688 269.847656 C 303.421875 269.652344 303.53125 269.339844 303.378906 268.902344 C 303.339844 268.78125 303.375 268.691406 303.488281 268.632812 L 303.71875 268.503906 C 303.964844 268.371094 304.085938 268.167969 304.085938 267.890625 L 304.085938 266.246094 C 304.085938 266.085938 304.152344 265.960938 304.285156 265.871094 C 304.777344 265.546875 304.933594 265.054688 304.746094 264.402344 C 304.679688 264.152344 304.753906 263.960938 304.972656 263.828125 C 305.460938 263.507812 305.613281 263.023438 305.425781 262.363281 C 305.363281 262.128906 305.425781 261.9375 305.617188 261.789062 C 305.667969 261.75 305.71875 261.722656 305.773438 261.699219 C 306.007812 261.597656 306.125 261.421875 306.125 261.160156 L 306.125 259.460938 C 306.125 259.203125 306.25 259.042969 306.5 258.980469 C 306.558594 258.964844 306.605469 258.933594 306.644531 258.878906 C 306.75 258.714844 306.808594 258.539062 306.8125 258.347656 C 306.8125 257.625 306.804688 256.859375 306.792969 256.058594 C 306.789062 255.792969 306.917969 255.636719 307.179688 255.589844 C 307.257812 255.570312 307.3125 255.527344 307.351562 255.460938 C 307.4375 255.300781 307.480469 255.136719 307.484375 254.964844 C 307.496094 254.230469 307.492188 253.460938 307.472656 252.660156 C 307.46875 252.390625 307.597656 252.234375 307.859375 252.191406 C 307.9375 252.171875 307.992188 252.128906 308.03125 252.0625 C 308.117188 251.902344 308.160156 251.738281 308.160156 251.566406 C 308.171875 250.613281 308.171875 249.605469 308.160156 248.539062 C 308.152344 248.300781 308.269531 248.160156 308.503906 248.117188 C 308.585938 248.105469 308.648438 248.0625 308.695312 247.996094 C 308.796875 247.832031 308.84375 247.65625 308.84375 247.464844 C 308.851562 246.085938 308.847656 244.628906 308.839844 243.101562 C 308.839844 242.863281 308.957031 242.71875 309.191406 242.675781 C 309.269531 242.660156 309.328125 242.621094 309.367188 242.550781 C 309.476562 242.394531 309.53125 242.21875 309.53125 242.023438 C 309.523438 234.328125 309.523438 226.804688 309.53125 219.449219 C 309.53125 219.277344 309.484375 219.121094 309.390625 218.980469 C 309.328125 218.890625 309.25 218.828125 309.152344 218.789062 C 308.945312 218.714844 308.84375 218.566406 308.84375 218.355469 L 308.84375 214.039062 C 308.84375 213.894531 308.816406 213.757812 308.757812 213.625 C 308.691406 213.488281 308.601562 213.398438 308.476562 213.351562 C 308.269531 213.28125 308.164062 213.132812 308.164062 212.910156 L 308.164062 209.976562 C 308.164062 209.824219 308.136719 209.683594 308.078125 209.554688 C 308.019531 209.414062 307.925781 209.320312 307.796875 209.28125 C 307.589844 209.203125 307.484375 209.054688 307.484375 208.832031 L 307.484375 206.5 C 307.484375 206.355469 307.445312 206.21875 307.363281 206.09375 C 307.300781 205.988281 307.210938 205.914062 307.089844 205.871094 C 306.902344 205.800781 306.804688 205.667969 306.804688 205.460938 L 306.804688 203.136719 C 306.804688 202.996094 306.773438 202.863281 306.710938 202.742188 C 306.648438 202.613281 306.550781 202.523438 306.425781 202.484375 C 306.226562 202.410156 306.125 202.269531 306.125 202.054688 L 306.125 200.1875 C 306.125 199.992188 306.03125 199.871094 305.839844 199.828125 C 305.757812 199.804688 305.6875 199.769531 305.625 199.71875 C 305.429688 199.570312 305.363281 199.375 305.425781 199.132812 C 305.613281 198.472656 305.460938 197.988281 304.976562 197.679688 C 304.75 197.53125 304.675781 197.324219 304.746094 197.066406 C 304.921875 196.453125 304.78125 195.972656 304.320312 195.625 C 304.050781 195.425781 303.96875 195.167969 304.074219 194.851562 C 304.246094 194.320312 304.109375 193.917969 303.660156 193.640625 C 303.539062 193.566406 303.449219 193.464844 303.402344 193.328125 C 303.351562 193.195312 303.34375 193.058594 303.386719 192.921875 C 303.570312 192.324219 303.425781 191.875 302.960938 191.574219 C 302.714844 191.421875 302.632812 191.207031 302.714844 190.929688 C 302.894531 190.296875 302.742188 189.824219 302.253906 189.515625 C 302.03125 189.375 301.957031 189.179688 302.027344 188.929688 C 302.226562 188.261719 302.054688 187.761719 301.511719 187.429688 C 301.363281 187.339844 301.3125 187.207031 301.363281 187.035156 C 301.484375 186.621094 301.34375 186.335938 300.941406 186.179688 C 300.832031 186.136719 300.757812 186.0625 300.707031 185.957031 C 300.65625 185.851562 300.648438 185.746094 300.683594 185.636719 C 300.785156 185.285156 300.679688 185.03125 300.363281 184.867188 C 300.015625 184.691406 299.894531 184.414062 300.003906 184.039062 C 300.171875 183.460938 300.019531 183.027344 299.546875 182.734375 C 299.324219 182.597656 299.253906 182.402344 299.328125 182.148438 C 299.425781 181.847656 299.332031 181.640625 299.050781 181.523438 C 298.738281 181.390625 298.605469 181.160156 298.648438 180.824219 C 298.707031 180.410156 298.550781 180.140625 298.175781 180.007812 C 297.984375 179.9375 297.914062 179.804688 297.96875 179.605469 C 298.089844 179.175781 297.941406 178.867188 297.527344 178.675781 C 297.417969 178.625 297.339844 178.546875 297.292969 178.433594 C 297.246094 178.324219 297.242188 178.210938 297.285156 178.097656 C 297.398438 177.761719 297.289062 177.535156 296.964844 177.410156 C 296.6875 177.308594 296.578125 177.105469 296.632812 176.8125 C 296.707031 176.425781 296.570312 176.15625 296.222656 176.003906 C 295.945312 175.878906 295.851562 175.667969 295.9375 175.378906 C 296.03125 175.046875 295.917969 174.820312 295.597656 174.699219 C 295.417969 174.625 295.320312 174.496094 295.304688 174.304688 C 295.25 173.585938 294.851562 173.011719 294.109375 172.585938 C 293.90625 172.46875 293.832031 172.296875 293.890625 172.070312 C 294 171.664062 293.859375 171.382812 293.464844 171.226562 C 293.328125 171.167969 293.257812 171.066406 293.253906 170.917969 C 293.226562 170.203125 292.816406 169.613281 292.023438 169.144531 C 291.890625 169.070312 291.832031 168.953125 291.839844 168.800781 C 291.84375 168.71875 291.851562 168.636719 291.859375 168.554688 C 291.890625 168.332031 291.824219 168.144531 291.664062 167.992188 L 290.621094 167.011719 C 290.535156 166.929688 290.492188 166.832031 290.492188 166.710938 L 290.492188 166.371094 C 290.492188 166.214844 290.4375 166.082031 290.324219 165.972656 L 289.230469 164.9375 C 289.128906 164.84375 289.09375 164.726562 289.121094 164.59375 C 289.132812 164.527344 289.144531 164.464844 289.148438 164.402344 C 289.152344 164.210938 289.085938 164.050781 288.945312 163.917969 L 287.902344 162.933594 C 287.816406 162.851562 287.773438 162.753906 287.773438 162.632812 L 287.773438 162.316406 C 287.773438 162.15625 287.71875 162.023438 287.605469 161.914062 L 285.863281 160.203125 C 285.777344 160.121094 285.734375 160.019531 285.734375 159.894531 L 285.734375 159.597656 C 285.734375 159.4375 285.679688 159.304688 285.566406 159.195312 L 283.804688 157.46875 C 283.738281 157.394531 283.703125 157.308594 283.695312 157.210938 C 283.691406 157.132812 283.695312 157.054688 283.710938 156.980469 C 283.742188 156.796875 283.691406 156.640625 283.5625 156.511719 L 279.742188 152.71875 C 279.660156 152.636719 279.617188 152.535156 279.617188 152.410156 L 279.617188 152.09375 C 279.617188 151.964844 279.574219 151.855469 279.484375 151.765625 L 271.171875 143.445312 C 271.089844 143.367188 270.988281 143.324219 270.871094 143.324219 L 270.53125 143.324219 C 270.410156 143.324219 270.308594 143.285156 270.226562 143.203125 L 266.417969 139.367188 C 266.335938 139.289062 266.238281 139.246094 266.121094 139.246094 L 265.757812 139.246094 C 265.636719 139.246094 265.535156 139.203125 265.453125 139.117188 L 263.71875 137.335938 C 263.640625 137.25 263.539062 137.207031 263.421875 137.207031 L 263.074219 137.207031 C 262.9375 137.207031 262.824219 137.160156 262.734375 137.066406 L 260.996094 135.296875 C 260.914062 135.210938 260.8125 135.167969 260.695312 135.167969 L 260.289062 135.167969 C 260.179688 135.167969 260.085938 135.128906 260.007812 135.046875 L 258.984375 133.9375 C 258.902344 133.851562 258.800781 133.808594 258.675781 133.808594 L 258.34375 133.808594 C 258.1875 133.808594 258.050781 133.753906 257.9375 133.640625 L 256.902344 132.542969 C 256.808594 132.445312 256.691406 132.410156 256.558594 132.4375 C 256.484375 132.449219 256.414062 132.457031 256.347656 132.464844 C 256.1875 132.472656 256.050781 132.421875 255.9375 132.308594 L 254.917969 131.261719 C 254.808594 131.148438 254.675781 131.089844 254.519531 131.089844 L 254.191406 131.089844 C 253.996094 131.089844 253.847656 131.007812 253.75 130.839844 C 253.363281 130.191406 252.84375 129.820312 252.1875 129.722656 C 251.9375 129.691406 251.757812 129.566406 251.644531 129.34375 C 251.492188 129.0625 251.261719 128.964844 250.949219 129.050781 C 250.660156 129.128906 250.453125 129.027344 250.332031 128.753906 C 250.179688 128.398438 249.917969 128.269531 249.542969 128.363281 C 249.292969 128.429688 249.105469 128.347656 248.976562 128.125 C 248.570312 127.421875 248.019531 127.042969 247.328125 126.992188 C 247.140625 126.976562 247.011719 126.886719 246.9375 126.714844 C 246.777344 126.347656 246.5 126.222656 246.109375 126.339844 C 246.011719 126.367188 245.914062 126.359375 245.820312 126.3125 C 245.726562 126.269531 245.660156 126.199219 245.621094 126.101562 C 245.453125 125.699219 245.15625 125.542969 244.730469 125.640625 C 244.609375 125.667969 244.496094 125.648438 244.390625 125.582031 C 244.285156 125.515625 244.21875 125.421875 244.191406 125.300781 C 244.132812 125.03125 243.972656 124.933594 243.710938 125 C 243.390625 125.082031 243.128906 124.988281 242.929688 124.722656 C 242.601562 124.28125 242.15625 124.144531 241.589844 124.308594 C 241.238281 124.40625 240.976562 124.292969 240.808594 123.960938 C 240.640625 123.625 240.371094 123.511719 240 123.621094 C 239.898438 123.652344 239.796875 123.644531 239.699219 123.597656 C 239.605469 123.546875 239.535156 123.476562 239.496094 123.375 C 239.328125 122.964844 239.03125 122.816406 238.597656 122.933594 C 238.449219 122.976562 238.335938 122.929688 238.253906 122.796875 C 237.902344 122.242188 237.367188 122.070312 236.640625 122.289062 C 236.53125 122.320312 236.421875 122.3125 236.320312 122.257812 C 236.21875 122.203125 236.148438 122.121094 236.113281 122.007812 C 235.988281 121.636719 235.730469 121.503906 235.335938 121.601562 C 235.09375 121.660156 234.910156 121.582031 234.792969 121.363281 C 234.542969 120.90625 234.160156 120.753906 233.636719 120.910156 C 233.253906 121.023438 232.9375 120.917969 232.691406 120.601562 C 232.378906 120.199219 231.953125 120.074219 231.414062 120.230469 C 231.058594 120.328125 230.792969 120.214844 230.621094 119.890625 C 230.429688 119.53125 230.125 119.421875 229.703125 119.554688 C 229.535156 119.609375 229.417969 119.554688 229.355469 119.394531 C 229.332031 119.328125 229.304688 119.265625 229.273438 119.203125 C 229.160156 118.972656 228.976562 118.855469 228.714844 118.855469 L 227.039062 118.855469 C 226.871094 118.855469 226.738281 118.785156 226.644531 118.644531 C 226.3125 118.164062 225.828125 118.015625 225.1875 118.195312 C 224.929688 118.269531 224.730469 118.191406 224.589844 117.964844 C 224.253906 117.445312 223.734375 117.3125 223.027344 117.5625 C 222.941406 117.597656 222.851562 117.59375 222.765625 117.558594 C 222.679688 117.519531 222.617188 117.460938 222.578125 117.375 L 222.464844 117.117188 C 222.367188 116.917969 222.210938 116.816406 221.988281 116.816406 L 220.234375 116.816406 C 219.980469 116.816406 219.820312 116.691406 219.75 116.441406 C 219.738281 116.378906 219.703125 116.328125 219.644531 116.292969 C 219.484375 116.183594 219.3125 116.128906 219.132812 116.128906 C 218.398438 116.128906 217.628906 116.136719 216.820312 116.152344 C 216.554688 116.15625 216.398438 116.027344 216.351562 115.761719 C 216.339844 115.699219 216.304688 115.648438 216.25 115.613281 C 216.089844 115.507812 215.914062 115.457031 215.726562 115.449219 C 215 115.449219 214.230469 115.457031 213.421875 115.472656 C 213.15625 115.476562 213 115.347656 212.953125 115.082031 C 212.941406 115.019531 212.90625 114.96875 212.851562 114.933594 C 212.683594 114.828125 212.507812 114.777344 212.316406 114.777344 C 211.375 114.773438 210.378906 114.777344 209.332031 114.785156 C 209.082031 114.789062 208.929688 114.667969 208.875 114.425781 C 208.863281 114.351562 208.828125 114.296875 208.769531 114.253906 C 208.609375 114.144531 208.433594 114.089844 208.246094 114.089844 C 206.851562 114.097656 205.402344 114.101562 203.886719 114.105469 C 203.636719 114.105469 203.488281 113.984375 203.4375 113.746094 C 203.425781 113.671875 203.390625 113.617188 203.332031 113.574219 C 203.164062 113.464844 202.980469 113.410156 202.78125 113.410156 C 195.535156 113.421875 188.464844 113.421875 181.566406 113.417969 C 181.394531 113.417969 181.238281 113.464844 181.097656 113.5625 C 181.015625 113.617188 180.957031 113.691406 180.921875 113.785156 C 180.847656 113.992188 180.703125 114.097656 180.480469 114.097656 L 176.183594 114.097656 C 176.042969 114.097656 175.90625 114.125 175.769531 114.179688 C 175.628906 114.238281 175.535156 114.332031 175.484375 114.464844 C 175.410156 114.671875 175.265625 114.777344 175.042969 114.777344 L 172.085938 114.777344 C 171.9375 114.777344 171.796875 114.808594 171.664062 114.871094 C 171.535156 114.933594 171.453125 115.023438 171.414062 115.144531 C 171.335938 115.351562 171.1875 115.457031 170.964844 115.457031 L 168.640625 115.457031 C 168.492188 115.457031 168.359375 115.492188 168.230469 115.566406 C 168.121094 115.628906 168.046875 115.714844 168.007812 115.824219 C 167.933594 116.03125 167.789062 116.136719 167.566406 116.136719 L 165.21875 116.136719 C 165.074219 116.136719 164.941406 116.175781 164.820312 116.253906 C 164.71875 116.320312 164.652344 116.410156 164.617188 116.519531 C 164.542969 116.714844 164.398438 116.816406 164.179688 116.816406 L 162.296875 116.816406 C 162.125 116.816406 162.011719 116.898438 161.949219 117.0625 L 161.882812 117.25 C 161.839844 117.371094 161.761719 117.457031 161.648438 117.511719 C 161.539062 117.566406 161.421875 117.574219 161.304688 117.539062 C 160.628906 117.320312 160.132812 117.457031 159.816406 117.953125 C 159.664062 118.1875 159.453125 118.269531 159.183594 118.195312 C 158.585938 118.023438 158.125 118.152344 157.804688 118.578125 C 157.664062 118.761719 157.480469 118.855469 157.246094 118.855469 L 155.832031 118.855469 C 155.570312 118.855469 155.375 118.90625 155.242188 119.011719 C 155.183594 119.058594 155.140625 119.117188 155.113281 119.195312 C 155.019531 119.5 154.816406 119.617188 154.507812 119.550781 C 154.117188 119.46875 153.851562 119.605469 153.707031 119.964844 C 153.660156 120.085938 153.574219 120.171875 153.457031 120.230469 C 153.339844 120.285156 153.21875 120.289062 153.09375 120.25 C 152.453125 120.039062 151.972656 120.183594 151.652344 120.675781 C 151.503906 120.910156 151.292969 120.992188 151.023438 120.914062 C 150.394531 120.730469 149.925781 120.875 149.613281 121.351562 C 149.472656 121.566406 149.28125 121.648438 149.03125 121.59375 C 148.671875 121.519531 148.425781 121.640625 148.296875 121.96875 C 148.242188 122.097656 148.152344 122.191406 148.027344 122.253906 C 147.902344 122.3125 147.769531 122.320312 147.636719 122.28125 C 147.003906 122.085938 146.527344 122.230469 146.214844 122.710938 C 146.117188 122.863281 145.972656 122.945312 145.789062 122.953125 C 144.976562 122.996094 144.566406 123.414062 144.550781 124.210938 C 144.464844 131.027344 144.375 135.433594 144.285156 137.433594 C 144.242188 126.167969 144.21875 114.90625 144.226562 103.644531 C 144.230469 97.296875 144.035156 92.773438 143.640625 90.078125 C 140.023438 65.296875 118.914062 46.347656 93.683594 46.511719 C 93.613281 46.511719 93.550781 46.535156 93.5 46.585938 C 93.449219 46.636719 93.425781 46.695312 93.425781 46.769531 Z M 93.417969 159.003906 " fill-opacity="0.004" fill-rule="nonzero"/></g><path fill="#3b5a40" d="M 144.285156 137.433594 L 144.246094 143.910156 L 144.375 224.363281 C 144.105469 229.417969 144.296875 234.476562 144.9375 239.542969 C 147.289062 260.753906 155.851562 278.554688 170.617188 292.945312 C 185.039062 307.003906 202.539062 315.171875 223.117188 317.441406 C 226.738281 317.839844 231.265625 317.679688 235.378906 318.039062 C 224.734375 323.363281 213.796875 326.585938 202.5625 327.703125 C 177.605469 330.1875 154.96875 324.3125 134.660156 310.078125 C 131.046875 307.546875 127.460938 304.578125 123.902344 301.175781 C 104.265625 282.367188 93.398438 256.96875 93.417969 229.726562 C 93.4375 206.160156 93.4375 182.585938 93.417969 159.003906 L 93.425781 46.769531 C 93.425781 46.695312 93.449219 46.636719 93.5 46.585938 C 93.550781 46.535156 93.613281 46.511719 93.683594 46.511719 C 118.914062 46.347656 140.023438 65.296875 143.640625 90.078125 C 144.035156 92.773438 144.230469 97.296875 144.226562 103.644531 C 144.21875 114.90625 144.242188 126.167969 144.285156 137.433594 Z M 144.285156 137.433594 " fill-opacity="1" fill-rule="nonzero"/><path fill="#030303" d="M 93.417969 159.003906 C 93.4375 182.585938 93.4375 206.160156 93.417969 229.726562 C 93.398438 256.96875 104.265625 282.367188 123.902344 301.175781 C 127.460938 304.578125 131.046875 307.546875 134.660156 310.078125 C 154.96875 324.3125 177.605469 330.1875 202.5625 327.703125 C 213.796875 326.585938 224.734375 323.363281 235.378906 318.039062 C 247.769531 311.851562 258.328125 303.515625 267.050781 293.027344 C 280.433594 276.9375 288.625 256.785156 289.628906 235.695312 C 290.042969 227.085938 289.613281 219.351562 288.347656 212.496094 C 285.929688 199.4375 281.242188 187.546875 274.28125 176.820312 C 264.460938 161.679688 251.550781 150.09375 235.5625 142.058594 C 206.832031 127.628906 172.539062 128.335938 144.246094 143.910156 L 144.285156 137.433594 C 144.375 135.433594 144.464844 131.027344 144.550781 124.210938 C 144.566406 123.414062 144.976562 122.996094 145.789062 122.953125 C 145.972656 122.945312 146.117188 122.863281 146.214844 122.710938 C 146.527344 122.230469 147.003906 122.085938 147.636719 122.28125 C 147.769531 122.320312 147.902344 122.3125 148.027344 122.253906 C 148.152344 122.191406 148.242188 122.097656 148.296875 121.96875 C 148.425781 121.644531 148.671875 121.519531 149.03125 121.59375 C 149.28125 121.648438 149.472656 121.566406 149.613281 121.351562 C 149.925781 120.875 150.394531 120.730469 151.023438 120.914062 C 151.292969 120.992188 151.503906 120.910156 151.652344 120.675781 C 151.972656 120.183594 152.453125 120.039062 153.09375 120.25 C 153.21875 120.289062 153.339844 120.285156 153.457031 120.230469 C 153.574219 120.171875 153.660156 120.085938 153.707031 119.964844 C 153.851562 119.605469 154.117188 119.46875 154.507812 119.550781 C 154.816406 119.617188 155.019531 119.5 155.113281 119.195312 C 155.140625 119.117188 155.183594 119.058594 155.242188 119.011719 C 155.375 118.90625 155.570312 118.855469 155.832031 118.855469 L 157.246094 118.855469 C 157.480469 118.855469 157.664062 118.761719 157.804688 118.578125 C 158.125 118.152344 158.585938 118.023438 159.183594 118.195312 C 159.453125 118.269531 159.664062 118.1875 159.816406 117.953125 C 160.132812 117.457031 160.628906 117.320312 161.304688 117.539062 C 161.421875 117.574219 161.539062 117.566406 161.648438 117.511719 C 161.761719 117.457031 161.839844 117.371094 161.882812 117.25 L 161.949219 117.0625 C 162.011719 116.898438 162.125 116.816406 162.296875 116.816406 L 164.179688 116.816406 C 164.398438 116.816406 164.542969 116.714844 164.617188 116.519531 C 164.652344 116.410156 164.71875 116.320312 164.820312 116.253906 C 164.941406 116.175781 165.074219 116.136719 165.21875 116.136719 L 167.566406 116.136719 C 167.789062 116.136719 167.933594 116.03125 168.007812 115.824219 C 168.046875 115.714844 168.121094 115.628906 168.230469 115.566406 C 168.359375 115.492188 168.496094 115.457031 168.640625 115.457031 L 170.964844 115.457031 C 171.1875 115.457031 171.335938 115.351562 171.414062 115.144531 C 171.453125 115.023438 171.535156 114.933594 171.664062 114.871094 C 171.796875 114.808594 171.9375 114.777344 172.085938 114.777344 L 175.042969 114.777344 C 175.265625 114.777344 175.410156 114.671875 175.484375 114.464844 C 175.535156 114.332031 175.628906 114.238281 175.769531 114.179688 C 175.90625 114.125 176.042969 114.097656 176.183594 114.097656 L 180.480469 114.097656 C 180.703125 114.097656 180.847656 113.992188 180.921875 113.785156 C 180.957031 113.691406 181.015625 113.617188 181.097656 113.5625 C 181.238281 113.464844 181.394531 113.417969 181.566406 113.417969 C 188.464844 113.421875 195.535156 113.421875 202.78125 113.410156 C 202.980469 113.410156 203.164062 113.464844 203.332031 113.574219 C 203.390625 113.617188 203.425781 113.671875 203.4375 113.746094 C 203.488281 113.984375 203.636719 114.105469 203.886719 114.105469 C 205.402344 114.101562 206.851562 114.097656 208.246094 114.089844 C 208.433594 114.089844 208.609375 114.144531 208.769531 114.253906 C 208.828125 114.296875 208.863281 114.351562 208.875 114.425781 C 208.929688 114.667969 209.082031 114.789062 209.332031 114.785156 C 210.378906 114.777344 211.375 114.773438 212.316406 114.777344 C 212.507812 114.777344 212.683594 114.828125 212.851562 114.933594 C 212.90625 114.96875 212.941406 115.019531 212.953125 115.082031 C 213 115.347656 213.15625 115.476562 213.421875 115.472656 C 214.230469 115.457031 215 115.449219 215.726562 115.449219 C 215.914062 115.457031 216.089844 115.507812 216.25 115.613281 C 216.304688 115.648438 216.339844 115.699219 216.351562 115.761719 C 216.398438 116.027344 216.554688 116.15625 216.820312 116.152344 C 217.628906 116.136719 218.398438 116.128906 219.132812 116.128906 C 219.3125 116.128906 219.484375 116.183594 219.644531 116.292969 C 219.703125 116.328125 219.738281 116.378906 219.75 116.441406 C 219.820312 116.691406 219.980469 116.816406 220.234375 116.816406 L 221.988281 116.816406 C 222.210938 116.816406 222.367188 116.917969 222.464844 117.117188 L 222.578125 117.375 C 222.617188 117.460938 222.679688 117.519531 222.765625 117.558594 C 222.851562 117.59375 222.941406 117.597656 223.027344 117.566406 C 223.734375 117.3125 224.253906 117.445312 224.589844 117.964844 C 224.730469 118.191406 224.929688 118.269531 225.1875 118.195312 C 225.828125 118.015625 226.3125 118.164062 226.644531 118.644531 C 226.738281 118.785156 226.871094 118.855469 227.039062 118.855469 L 228.714844 118.855469 C 228.976562 118.855469 229.160156 118.972656 229.273438 119.203125 C 229.304688 119.265625 229.332031 119.328125 229.355469 119.394531 C 229.417969 119.554688 229.535156 119.609375 229.703125 119.554688 C 230.125 119.421875 230.429688 119.53125 230.621094 119.890625 C 230.792969 120.214844 231.058594 120.328125 231.414062 120.230469 C 231.953125 120.074219 232.378906 120.199219 232.691406 120.601562 C 232.9375 120.917969 233.253906 121.023438 233.636719 120.910156 C 234.160156 120.753906 234.542969 120.90625 234.792969 121.363281 C 234.910156 121.582031 235.09375 121.660156 235.335938 121.601562 C 235.730469 121.503906 235.988281 121.636719 236.113281 122.007812 C 236.148438 122.121094 236.21875 122.203125 236.320312 122.257812 C 236.421875 122.3125 236.53125 122.320312 236.640625 122.289062 C 237.367188 122.070312 237.902344 122.242188 238.253906 122.796875 C 238.335938 122.929688 238.449219 122.976562 238.597656 122.933594 C 239.03125 122.816406 239.328125 122.964844 239.496094 123.375 C 239.535156 123.476562 239.605469 123.546875 239.699219 123.597656 C 239.796875 123.644531 239.898438 123.652344 240 123.621094 C 240.371094 123.511719 240.640625 123.625 240.808594 123.960938 C 240.976562 124.292969 241.238281 124.40625 241.589844 124.308594 C 242.15625 124.144531 242.601562 124.28125 242.929688 124.722656 C 243.128906 124.988281 243.390625 125.082031 243.710938 125 C 243.972656 124.933594 244.132812 125.03125 244.191406 125.300781 C 244.21875 125.421875 244.285156 125.515625 244.390625 125.582031 C 244.496094 125.648438 244.609375 125.667969 244.730469 125.640625 C 245.15625 125.542969 245.453125 125.699219 245.621094 126.101562 C 245.660156 126.199219 245.726562 126.269531 245.820312 126.3125 C 245.914062 126.359375 246.011719 126.367188 246.109375 126.339844 C 246.5 126.222656 246.777344 126.347656 246.9375 126.714844 C 247.011719 126.886719 247.140625 126.976562 247.328125 126.992188 C 248.019531 127.042969 248.570312 127.421875 248.976562 128.125 C 249.105469 128.347656 249.292969 128.429688 249.542969 128.363281 C 249.917969 128.269531 250.179688 128.398438 250.332031 128.753906 C 250.453125 129.027344 250.660156 129.128906 250.949219 129.050781 C 251.261719 128.964844 251.492188 129.0625 251.644531 129.34375 C 251.757812 129.566406 251.9375 129.691406 252.1875 129.722656 C 252.84375 129.820312 253.363281 130.191406 253.75 130.839844 C 253.847656 131.007812 253.996094 131.089844 254.191406 131.089844 L 254.519531 131.089844 C 254.675781 131.089844 254.808594 131.148438 254.917969 131.261719 L 255.9375 132.308594 C 256.050781 132.421875 256.1875 132.472656 256.347656 132.464844 C 256.414062 132.457031 256.484375 132.449219 256.558594 132.4375 C 256.691406 132.410156 256.808594 132.445312 256.902344 132.542969 L 257.9375 133.640625 C 258.050781 133.753906 258.1875 133.808594 258.34375 133.808594 L 258.675781 133.808594 C 258.800781 133.808594 258.902344 133.851562 258.984375 133.9375 L 260.007812 135.046875 C 260.085938 135.128906 260.179688 135.167969 260.289062 135.167969 L 260.695312 135.167969 C 260.8125 135.167969 260.914062 135.210938 260.996094 135.296875 L 262.734375 137.066406 C 262.824219 137.160156 262.9375 137.207031 263.074219 137.207031 L 263.421875 137.207031 C 263.539062 137.207031 263.640625 137.25 263.722656 137.335938 L 265.453125 139.117188 C 265.535156 139.203125 265.636719 139.246094 265.761719 139.246094 L 266.121094 139.246094 C 266.238281 139.246094 266.335938 139.289062 266.417969 139.367188 L 270.226562 143.203125 C 270.308594 143.285156 270.410156 143.324219 270.53125 143.324219 L 270.871094 143.324219 C 270.988281 143.324219 271.089844 143.367188 271.171875 143.445312 L 279.484375 151.765625 C 279.574219 151.855469 279.617188 151.964844 279.617188 152.09375 L 279.617188 152.410156 C 279.617188 152.535156 279.660156 152.636719 279.742188 152.71875 L 283.5625 156.511719 C 283.691406 156.640625 283.742188 156.796875 283.710938 156.980469 C 283.695312 157.054688 283.691406 157.132812 283.695312 157.210938 C 283.703125 157.308594 283.738281 157.394531 283.804688 157.46875 L 285.566406 159.195312 C 285.679688 159.304688 285.734375 159.4375 285.734375 159.597656 L 285.734375 159.894531 C 285.734375 160.019531 285.777344 160.121094 285.863281 160.203125 L 287.605469 161.914062 C 287.71875 162.023438 287.773438 162.15625 287.773438 162.316406 L 287.773438 162.632812 C 287.773438 162.753906 287.816406 162.851562 287.902344 162.933594 L 288.945312 163.917969 C 289.085938 164.050781 289.152344 164.210938 289.148438 164.402344 C 289.144531 164.464844 289.132812 164.527344 289.121094 164.59375 C 289.09375 164.726562 289.128906 164.84375 289.230469 164.9375 L 290.324219 165.972656 C 290.4375 166.082031 290.492188 166.214844 290.492188 166.371094 L 290.492188 166.710938 C 290.492188 166.832031 290.535156 166.929688 290.621094 167.011719 L 291.664062 167.992188 C 291.824219 168.144531 291.890625 168.332031 291.859375 168.554688 C 291.851562 168.636719 291.84375 168.71875 291.839844 168.800781 C 291.832031 168.953125 291.890625 169.070312 292.023438 169.144531 C 292.816406 169.613281 293.226562 170.203125 293.253906 170.921875 C 293.257812 171.066406 293.328125 171.167969 293.464844 171.226562 C 293.859375 171.382812 294 171.664062 293.890625 172.070312 C 293.832031 172.296875 293.90625 172.46875 294.109375 172.585938 C 294.851562 173.011719 295.25 173.585938 295.304688 174.304688 C 295.320312 174.496094 295.417969 174.625 295.597656 174.699219 C 295.917969 174.820312 296.03125 175.046875 295.9375 175.378906 C 295.851562 175.667969 295.945312 175.878906 296.222656 176.003906 C 296.574219 176.15625 296.707031 176.425781 296.632812 176.8125 C 296.578125 177.105469 296.6875 177.308594 296.964844 177.410156 C 297.289062 177.535156 297.398438 177.761719 297.285156 178.097656 C 297.242188 178.210938 297.246094 178.324219 297.292969 178.433594 C 297.339844 178.546875 297.417969 178.625 297.527344 178.675781 C 297.941406 178.867188 298.089844 179.175781 297.96875 179.605469 C 297.914062 179.804688 297.984375 179.9375 298.175781 180.007812 C 298.550781 180.140625 298.707031 180.410156 298.648438 180.824219 C 298.605469 181.160156 298.738281 181.390625 299.050781 181.523438 C 299.332031 181.640625 299.425781 181.847656 299.328125 182.148438 C 299.253906 182.402344 299.324219 182.597656 299.546875 182.734375 C 300.019531 183.027344 300.171875 183.460938 300.003906 184.039062 C 299.894531 184.414062 300.015625 184.691406 300.363281 184.867188 C 300.679688 185.03125 300.785156 185.285156 300.683594 185.636719 C 300.648438 185.746094 300.65625 185.851562 300.707031 185.957031 C 300.757812 186.0625 300.832031 186.136719 300.941406 186.179688 C 301.34375 186.335938 301.484375 186.621094 301.363281 187.035156 C 301.3125 187.207031 301.363281 187.339844 301.511719 187.429688 C 302.054688 187.761719 302.226562 188.261719 302.027344 188.933594 C 301.957031 189.179688 302.03125 189.375 302.253906 189.515625 C 302.742188 189.824219 302.894531 190.296875 302.714844 190.929688 C 302.632812 191.207031 302.714844 191.421875 302.960938 191.574219 C 303.425781 191.875 303.570312 192.324219 303.386719 192.921875 C 303.34375 193.058594 303.351562 193.195312 303.402344 193.328125 C 303.449219 193.464844 303.539062 193.566406 303.660156 193.640625 C 304.109375 193.917969 304.246094 194.320312 304.074219 194.851562 C 303.96875 195.167969 304.050781 195.425781 304.320312 195.625 C 304.78125 195.972656 304.921875 196.453125 304.746094 197.066406 C 304.675781 197.324219 304.75 197.53125 304.976562 197.679688 C 305.460938 197.988281 305.613281 198.472656 305.425781 199.132812 C 305.363281 199.375 305.429688 199.570312 305.625 199.71875 C 305.6875 199.769531 305.757812 199.804688 305.839844 199.828125 C 306.03125 199.871094 306.125 199.992188 306.125 200.1875 L 306.125 202.054688 C 306.125 202.269531 306.226562 202.410156 306.425781 202.484375 C 306.550781 202.527344 306.648438 202.613281 306.710938 202.742188 C 306.773438 202.867188 306.804688 202.996094 306.804688 203.136719 L 306.804688 205.460938 C 306.804688 205.667969 306.902344 205.800781 307.089844 205.871094 C 307.210938 205.914062 307.300781 205.988281 307.363281 206.09375 C 307.445312 206.21875 307.484375 206.355469 307.484375 206.5 L 307.484375 208.832031 C 307.484375 209.054688 307.589844 209.203125 307.796875 209.28125 C 307.925781 209.324219 308.019531 209.414062 308.078125 209.554688 C 308.136719 209.683594 308.164062 209.824219 308.164062 209.976562 L 308.164062 212.910156 C 308.164062 213.132812 308.269531 213.28125 308.476562 213.351562 C 308.601562 213.398438 308.695312 213.488281 308.757812 213.625 C 308.816406 213.757812 308.84375 213.894531 308.84375 214.039062 L 308.84375 218.355469 C 308.84375 218.566406 308.945312 218.714844 309.152344 218.789062 C 309.25 218.828125 309.332031 218.890625 309.390625 218.980469 C 309.484375 219.121094 309.53125 219.277344 309.53125 219.449219 C 309.523438 226.804688 309.523438 234.328125 309.53125 242.023438 C 309.53125 242.21875 309.476562 242.394531 309.367188 242.550781 C 309.328125 242.621094 309.269531 242.660156 309.191406 242.675781 C 308.957031 242.71875 308.839844 242.863281 308.839844 243.101562 C 308.847656 244.628906 308.851562 246.085938 308.84375 247.464844 C 308.84375 247.65625 308.796875 247.832031 308.695312 247.996094 C 308.652344 248.066406 308.585938 248.105469 308.503906 248.117188 C 308.269531 248.160156 308.152344 248.300781 308.160156 248.539062 C 308.171875 249.605469 308.171875 250.613281 308.160156 251.566406 C 308.160156 251.738281 308.117188 251.902344 308.03125 252.0625 C 307.992188 252.128906 307.9375 252.171875 307.859375 252.191406 C 307.597656 252.234375 307.46875 252.390625 307.472656 252.660156 C 307.492188 253.460938 307.496094 254.230469 307.484375 254.964844 C 307.480469 255.136719 307.4375 255.300781 307.351562 255.460938 C 307.3125 255.527344 307.257812 255.570312 307.179688 255.589844 C 306.917969 255.636719 306.789062 255.792969 306.792969 256.058594 C 306.804688 256.859375 306.8125 257.625 306.8125 258.347656 C 306.808594 258.539062 306.75 258.714844 306.644531 258.878906 C 306.605469 258.933594 306.558594 258.964844 306.5 258.980469 C 306.25 259.042969 306.125 259.203125 306.125 259.460938 L 306.125 261.160156 C 306.125 261.421875 306.007812 261.597656 305.773438 261.699219 C 305.71875 261.722656 305.667969 261.75 305.617188 261.789062 C 305.425781 261.9375 305.363281 262.128906 305.425781 262.363281 C 305.613281 263.023438 305.460938 263.507812 304.972656 263.828125 C 304.753906 263.960938 304.679688 264.152344 304.746094 264.402344 C 304.933594 265.058594 304.777344 265.546875 304.285156 265.871094 C 304.152344 265.960938 304.085938 266.085938 304.085938 266.246094 L 304.085938 267.890625 C 304.085938 268.167969 303.964844 268.371094 303.71875 268.503906 L 303.488281 268.632812 C 303.375 268.691406 303.339844 268.78125 303.378906 268.902344 C 303.53125 269.339844 303.421875 269.652344 303.054688 269.847656 C 302.722656 270.019531 302.609375 270.285156 302.714844 270.644531 C 302.867188 271.183594 302.746094 271.605469 302.347656 271.914062 C 302.019531 272.167969 301.917969 272.488281 302.035156 272.878906 C 302.1875 273.386719 302.042969 273.761719 301.601562 274.007812 C 301.367188 274.136719 301.285156 274.328125 301.347656 274.585938 C 301.429688 274.945312 301.304688 275.195312 300.96875 275.339844 C 300.671875 275.460938 300.574219 275.679688 300.667969 275.984375 C 300.859375 276.621094 300.703125 277.097656 300.207031 277.421875 C 300.015625 277.546875 299.941406 277.722656 299.988281 277.945312 C 300.078125 278.371094 299.917969 278.648438 299.507812 278.78125 C 299.328125 278.832031 299.269531 278.949219 299.324219 279.125 C 299.453125 279.578125 299.3125 279.898438 298.902344 280.085938 C 298.671875 280.195312 298.578125 280.371094 298.628906 280.613281 C 298.730469 281.074219 298.558594 281.371094 298.121094 281.511719 C 297.964844 281.5625 297.910156 281.664062 297.957031 281.824219 C 298.101562 282.292969 297.957031 282.621094 297.527344 282.808594 C 297.308594 282.910156 297.222656 283.078125 297.269531 283.3125 C 297.375 283.785156 297.199219 284.09375 296.738281 284.238281 C 296.605469 284.28125 296.554688 284.375 296.597656 284.515625 C 296.746094 285.011719 296.589844 285.355469 296.128906 285.554688 C 295.941406 285.636719 295.875 285.777344 295.929688 285.96875 C 296.054688 286.410156 295.902344 286.714844 295.476562 286.886719 C 295.378906 286.925781 295.308594 286.992188 295.265625 287.085938 C 295.222656 287.175781 295.214844 287.273438 295.246094 287.371094 C 295.363281 287.765625 295.238281 288.042969 294.871094 288.207031 C 294.703125 288.273438 294.613281 288.398438 294.605469 288.582031 C 294.570312 289.261719 294.1875 289.820312 293.457031 290.257812 C 293.21875 290.410156 293.136719 290.621094 293.210938 290.890625 C 293.296875 291.179688 293.207031 291.398438 292.933594 291.539062 C 292.703125 291.65625 292.570312 291.84375 292.53125 292.101562 C 292.441406 292.753906 292.074219 293.273438 291.425781 293.65625 C 291.257812 293.757812 291.171875 293.90625 291.171875 294.101562 L 291.171875 294.425781 C 291.171875 294.585938 291.117188 294.71875 291.003906 294.828125 L 289.949219 295.851562 C 289.835938 295.960938 289.785156 296.097656 289.800781 296.253906 C 289.804688 296.324219 289.8125 296.390625 289.828125 296.457031 C 289.859375 296.597656 289.824219 296.714844 289.71875 296.8125 L 288.605469 297.871094 C 288.492188 297.980469 288.433594 298.113281 288.433594 298.273438 C 288.4375 298.351562 288.449219 298.425781 288.46875 298.496094 C 288.5 298.632812 288.464844 298.75 288.359375 298.851562 L 287.238281 299.917969 C 287.125 300.023438 287.074219 300.152344 287.082031 300.3125 C 287.085938 300.378906 287.09375 300.449219 287.101562 300.523438 C 287.125 300.667969 287.082031 300.789062 286.980469 300.890625 L 285.199219 302.644531 C 285.089844 302.753906 285.039062 302.882812 285.042969 303.039062 C 285.046875 303.105469 285.054688 303.171875 285.0625 303.242188 C 285.082031 303.382812 285.039062 303.503906 284.941406 303.601562 L 281.828125 306.699219 C 281.714844 306.808594 281.65625 306.945312 281.65625 307.101562 L 281.65625 307.378906 C 281.65625 307.492188 281.617188 307.59375 281.535156 307.679688 L 269.160156 320.050781 C 269.054688 320.15625 268.929688 320.207031 268.785156 320.214844 C 268.707031 320.21875 268.628906 320.214844 268.546875 320.207031 C 268.410156 320.1875 268.292969 320.230469 268.191406 320.328125 L 265.140625 323.394531 C 264.972656 323.5625 264.773438 323.632812 264.535156 323.613281 C 264.46875 323.601562 264.402344 323.601562 264.339844 323.605469 C 264.261719 323.609375 264.195312 323.640625 264.140625 323.691406 L 262.414062 325.453125 C 262.285156 325.585938 262.125 325.652344 261.933594 325.65625 C 261.878906 325.65625 261.820312 325.652344 261.761719 325.636719 C 261.613281 325.609375 261.488281 325.652344 261.382812 325.757812 L 260.371094 326.832031 C 260.261719 326.945312 260.128906 327.003906 259.96875 327.003906 L 259.644531 327.003906 C 259.523438 327.003906 259.425781 327.046875 259.34375 327.132812 L 257.691406 328.8125 C 257.542969 328.964844 257.359375 329.042969 257.148438 329.042969 L 256.800781 329.042969 C 256.691406 329.042969 256.609375 329.089844 256.558594 329.183594 C 256.140625 329.90625 255.550781 330.328125 254.789062 330.449219 C 254.585938 330.480469 254.441406 330.59375 254.355469 330.78125 C 254.214844 331.082031 253.976562 331.183594 253.640625 331.089844 C 253.386719 331.011719 253.195312 331.089844 253.0625 331.320312 C 252.632812 332.0625 252.066406 332.449219 251.363281 332.476562 C 251.203125 332.480469 251.089844 332.558594 251.023438 332.710938 C 250.875 333.089844 250.601562 333.226562 250.207031 333.121094 C 249.96875 333.058594 249.792969 333.140625 249.683594 333.371094 C 249.53125 333.707031 249.253906 333.863281 248.855469 333.835938 C 248.550781 333.8125 248.320312 333.929688 248.164062 334.195312 C 247.785156 334.820312 247.300781 335.144531 246.707031 335.171875 C 246.480469 335.183594 246.320312 335.289062 246.226562 335.5 C 246.082031 335.832031 245.828125 335.941406 245.472656 335.832031 C 245.359375 335.800781 245.253906 335.808594 245.148438 335.855469 C 245.042969 335.90625 244.96875 335.984375 244.921875 336.089844 C 244.761719 336.472656 244.480469 336.621094 244.070312 336.539062 C 243.789062 336.484375 243.597656 336.589844 243.492188 336.859375 C 243.371094 337.191406 243.140625 337.304688 242.800781 337.199219 C 242.570312 337.125 242.390625 337.195312 242.261719 337.402344 C 241.964844 337.886719 241.519531 338.042969 240.925781 337.863281 C 240.566406 337.765625 240.304688 337.878906 240.136719 338.203125 C 239.96875 338.523438 239.699219 338.644531 239.332031 338.578125 C 239.046875 338.523438 238.851562 338.628906 238.742188 338.898438 C 238.605469 339.242188 238.355469 339.351562 237.996094 339.222656 C 237.800781 339.160156 237.648438 339.214844 237.539062 339.394531 C 237.214844 339.9375 236.71875 340.101562 236.050781 339.882812 C 235.925781 339.84375 235.804688 339.851562 235.683594 339.910156 C 235.566406 339.964844 235.484375 340.054688 235.4375 340.175781 C 235.304688 340.519531 235.050781 340.652344 234.683594 340.578125 C 234.433594 340.523438 234.238281 340.605469 234.09375 340.820312 C 233.785156 341.292969 233.316406 341.4375 232.6875 341.257812 C 232.417969 341.179688 232.207031 341.261719 232.054688 341.5 C 231.746094 341.976562 231.277344 342.121094 230.648438 341.9375 C 230.375 341.855469 230.164062 341.933594 230.015625 342.167969 C 229.710938 342.652344 229.242188 342.800781 228.609375 342.617188 C 228.339844 342.535156 228.132812 342.613281 227.988281 342.847656 C 227.675781 343.332031 227.199219 343.480469 226.554688 343.296875 C 226.296875 343.222656 226.09375 343.300781 225.945312 343.527344 C 225.621094 344.03125 225.117188 344.171875 224.429688 343.953125 C 224.15625 343.867188 223.972656 343.960938 223.878906 344.226562 L 223.804688 344.429688 C 223.742188 344.59375 223.628906 344.675781 223.457031 344.675781 L 221.566406 344.675781 C 221.359375 344.675781 221.21875 344.777344 221.144531 344.972656 C 221.101562 345.09375 221.023438 345.183594 220.914062 345.246094 C 220.796875 345.320312 220.667969 345.355469 220.527344 345.355469 L 218.839844 345.355469 C 218.632812 345.355469 218.492188 345.457031 218.417969 345.652344 C 218.382812 345.765625 218.3125 345.855469 218.207031 345.917969 C 218.082031 345.996094 217.945312 346.035156 217.800781 346.035156 L 215.46875 346.035156 C 215.246094 346.035156 215.101562 346.140625 215.027344 346.347656 C 214.984375 346.46875 214.898438 346.558594 214.769531 346.617188 C 214.636719 346.683594 214.503906 346.714844 214.363281 346.714844 L 211.390625 346.714844 C 211.167969 346.714844 211.023438 346.820312 210.949219 347.027344 C 210.90625 347.148438 210.820312 347.238281 210.691406 347.296875 C 210.558594 347.363281 210.421875 347.394531 210.277344 347.394531 L 206.628906 347.394531 C 206.414062 347.394531 206.269531 347.496094 206.191406 347.699219 C 206.148438 347.820312 206.0625 347.914062 205.933594 347.976562 C 205.808594 348.042969 205.671875 348.074219 205.53125 348.074219 L 197.796875 348.074219 C 197.546875 348.074219 197.390625 348.195312 197.320312 348.433594 C 197.304688 348.507812 197.265625 348.5625 197.207031 348.605469 C 197.042969 348.707031 196.867188 348.761719 196.675781 348.761719 C 193.6875 348.746094 190.703125 348.746094 187.730469 348.761719 C 187.527344 348.761719 187.34375 348.703125 187.175781 348.589844 C 187.121094 348.554688 187.082031 348.503906 187.066406 348.441406 C 187.003906 348.195312 186.84375 348.074219 186.589844 348.074219 L 178.945312 348.074219 C 178.699219 348.074219 178.5 348.023438 178.34375 347.917969 C 178.28125 347.875 178.242188 347.816406 178.230469 347.742188 C 178.183594 347.5 178.039062 347.382812 177.792969 347.386719 C 176.503906 347.394531 175.277344 347.398438 174.117188 347.394531 C 173.925781 347.394531 173.75 347.339844 173.582031 347.230469 C 173.523438 347.191406 173.484375 347.132812 173.472656 347.0625 C 173.421875 346.820312 173.273438 346.703125 173.03125 346.707031 C 171.980469 346.722656 170.976562 346.722656 170.019531 346.707031 C 169.847656 346.707031 169.679688 346.664062 169.523438 346.578125 C 169.449219 346.542969 169.40625 346.484375 169.394531 346.410156 C 169.347656 346.144531 169.191406 346.015625 168.925781 346.019531 C 168.121094 346.035156 167.359375 346.039062 166.632812 346.035156 C 166.445312 346.035156 166.265625 345.980469 166.105469 345.871094 C 166.046875 345.835938 166.007812 345.78125 165.996094 345.714844 C 165.945312 345.457031 165.792969 345.332031 165.53125 345.339844 C 164.960938 345.359375 164.417969 345.363281 163.902344 345.355469 C 163.71875 345.355469 163.546875 345.300781 163.386719 345.191406 C 163.332031 345.15625 163.296875 345.109375 163.285156 345.050781 C 163.21875 344.800781 163.058594 344.675781 162.800781 344.675781 L 161.167969 344.675781 C 160.894531 344.675781 160.6875 344.554688 160.558594 344.308594 L 160.429688 344.070312 C 160.347656 343.914062 160.226562 343.867188 160.0625 343.925781 C 159.320312 344.1875 158.777344 344.046875 158.4375 343.511719 C 158.296875 343.292969 158.097656 343.21875 157.839844 343.296875 C 157.195312 343.484375 156.71875 343.332031 156.40625 342.839844 C 156.265625 342.617188 156.066406 342.542969 155.808594 342.617188 C 155.160156 342.800781 154.679688 342.652344 154.367188 342.167969 C 154.226562 341.945312 154.027344 341.867188 153.769531 341.9375 C 153.148438 342.113281 152.664062 341.96875 152.320312 341.507812 C 152.121094 341.242188 151.863281 341.160156 151.550781 341.261719 C 151.027344 341.429688 150.625 341.296875 150.34375 340.863281 C 150.179688 340.613281 149.949219 340.519531 149.65625 340.578125 C 149.3125 340.648438 149.085938 340.519531 148.984375 340.1875 C 148.945312 340.066406 148.867188 339.976562 148.753906 339.917969 C 148.640625 339.855469 148.519531 339.84375 148.398438 339.882812 C 147.699219 340.101562 147.179688 339.933594 146.839844 339.386719 C 146.742188 339.222656 146.601562 339.171875 146.421875 339.230469 C 146.039062 339.351562 145.777344 339.234375 145.632812 338.871094 C 145.53125 338.621094 145.351562 338.523438 145.09375 338.578125 C 144.710938 338.65625 144.429688 338.527344 144.253906 338.199219 C 144.085938 337.878906 143.828125 337.769531 143.484375 337.863281 C 142.917969 338.027344 142.472656 337.890625 142.144531 337.449219 C 141.945312 337.183594 141.683594 337.089844 141.363281 337.171875 C 141.105469 337.238281 140.945312 337.140625 140.882812 336.878906 C 140.8125 336.589844 140.632812 336.476562 140.34375 336.539062 C 139.925781 336.625 139.636719 336.476562 139.472656 336.097656 C 139.425781 335.988281 139.351562 335.910156 139.242188 335.859375 C 139.136719 335.808594 139.023438 335.800781 138.910156 335.832031 C 138.589844 335.933594 138.347656 335.835938 138.1875 335.546875 C 138.070312 335.328125 137.890625 335.203125 137.644531 335.167969 C 136.976562 335.070312 136.449219 334.6875 136.070312 334.019531 C 135.949219 333.804688 135.765625 333.726562 135.523438 333.78125 C 135.085938 333.882812 134.796875 333.726562 134.65625 333.3125 C 134.585938 333.121094 134.457031 333.054688 134.265625 333.113281 C 133.839844 333.242188 133.539062 333.105469 133.355469 332.710938 C 133.289062 332.5625 133.171875 332.484375 133.011719 332.476562 C 132.316406 332.433594 131.75 332.042969 131.3125 331.304688 C 131.25 331.203125 131.160156 331.128906 131.046875 331.085938 C 130.933594 331.042969 130.820312 331.039062 130.707031 331.074219 C 130.402344 331.167969 130.179688 331.078125 130.039062 330.796875 C 129.925781 330.570312 129.742188 330.4375 129.488281 330.402344 C 128.832031 330.316406 128.3125 329.945312 127.925781 329.292969 C 127.828125 329.125 127.679688 329.042969 127.484375 329.042969 L 127.097656 329.042969 C 126.980469 329.042969 126.878906 329 126.796875 328.914062 L 125.050781 327.140625 C 124.941406 327.03125 124.8125 326.980469 124.65625 326.988281 C 124.578125 326.996094 124.503906 327 124.433594 327.011719 C 124.289062 327.03125 124.164062 326.988281 124.058594 326.882812 L 123.027344 325.765625 C 122.949219 325.683594 122.855469 325.644531 122.746094 325.644531 L 122.339844 325.644531 C 122.222656 325.644531 122.121094 325.601562 122.039062 325.515625 L 120.300781 323.746094 C 120.210938 323.652344 120.097656 323.605469 119.960938 323.605469 L 119.632812 323.605469 C 119.515625 323.605469 119.417969 323.5625 119.335938 323.484375 L 116.222656 320.355469 C 116.117188 320.246094 115.988281 320.191406 115.835938 320.191406 C 115.757812 320.191406 115.683594 320.199219 115.609375 320.207031 C 115.480469 320.21875 115.367188 320.179688 115.269531 320.085938 L 102.898438 307.714844 C 102.792969 307.605469 102.738281 307.472656 102.738281 307.3125 L 102.738281 307.035156 C 102.738281 306.917969 102.695312 306.816406 102.609375 306.734375 L 99.472656 303.621094 C 99.34375 303.496094 99.289062 303.339844 99.316406 303.160156 C 99.332031 303.078125 99.339844 302.996094 99.339844 302.914062 C 99.332031 302.820312 99.296875 302.738281 99.230469 302.671875 L 97.46875 300.9375 C 97.355469 300.828125 97.300781 300.695312 97.300781 300.535156 L 97.300781 300.21875 C 97.300781 300.097656 97.257812 300 97.171875 299.917969 L 96.144531 298.945312 C 96 298.808594 95.925781 298.644531 95.925781 298.449219 C 95.925781 298.367188 95.933594 298.289062 95.953125 298.210938 C 95.980469 298.101562 95.953125 298.011719 95.871094 297.933594 L 94.75 296.878906 C 94.636719 296.769531 94.582031 296.636719 94.582031 296.480469 L 94.582031 296.140625 C 94.582031 296.019531 94.539062 295.921875 94.453125 295.839844 L 93.433594 294.875 C 93.257812 294.710938 93.1875 294.507812 93.214844 294.269531 C 93.222656 294.191406 93.226562 294.117188 93.226562 294.046875 C 93.226562 293.90625 93.167969 293.796875 93.042969 293.726562 C 92.34375 293.308594 91.933594 292.730469 91.820312 291.984375 C 91.785156 291.773438 91.667969 291.625 91.472656 291.539062 C 91.183594 291.40625 91.085938 291.175781 91.183594 290.851562 C 91.21875 290.734375 91.214844 290.617188 91.167969 290.503906 C 91.121094 290.390625 91.046875 290.300781 90.9375 290.238281 C 90.199219 289.820312 89.816406 289.265625 89.789062 288.566406 C 89.785156 288.394531 89.703125 288.277344 89.542969 288.214844 C 89.171875 288.058594 89.039062 287.789062 89.144531 287.40625 C 89.210938 287.15625 89.125 286.980469 88.882812 286.875 C 88.519531 286.710938 88.371094 286.429688 88.441406 286.03125 C 88.492188 285.742188 88.378906 285.542969 88.101562 285.433594 C 87.785156 285.3125 87.683594 285.085938 87.789062 284.761719 C 87.832031 284.644531 87.828125 284.53125 87.777344 284.417969 C 87.730469 284.304688 87.652344 284.222656 87.539062 284.167969 C 87.152344 283.992188 87.007812 283.695312 87.105469 283.273438 C 87.152344 283.050781 87.074219 282.894531 86.867188 282.808594 C 86.457031 282.636719 86.3125 282.339844 86.425781 281.914062 C 86.480469 281.695312 86.402344 281.542969 86.199219 281.457031 C 85.796875 281.285156 85.644531 280.984375 85.746094 280.554688 C 85.792969 280.335938 85.714844 280.183594 85.507812 280.089844 C 85.09375 279.914062 84.945312 279.609375 85.066406 279.179688 C 85.121094 278.976562 85.050781 278.832031 84.855469 278.746094 C 84.421875 278.5625 84.265625 278.25 84.378906 277.800781 C 84.417969 277.640625 84.371094 277.523438 84.230469 277.441406 C 83.699219 277.132812 83.527344 276.636719 83.71875 275.957031 C 83.808594 275.640625 83.699219 275.417969 83.394531 275.292969 C 83.148438 275.199219 83.027344 275.019531 83.027344 274.753906 L 83.027344 272.894531 C 83.027344 272.628906 82.898438 272.53125 82.644531 272.59375 C 82.445312 272.640625 82.351562 272.566406 82.367188 272.371094 C 82.378906 272.191406 82.308594 272.058594 82.15625 271.96875 C 81.652344 271.679688 81.496094 271.226562 81.6875 270.617188 C 81.734375 270.464844 81.726562 270.320312 81.664062 270.175781 C 81.605469 270.03125 81.503906 269.925781 81.359375 269.855469 C 81.011719 269.683594 80.882812 269.394531 80.972656 268.984375 C 81.03125 268.714844 80.925781 268.550781 80.652344 268.503906 C 80.578125 268.488281 80.511719 268.449219 80.464844 268.386719 C 80.34375 268.230469 80.285156 268.050781 80.285156 267.851562 C 80.292969 267.355469 80.308594 266.863281 80.339844 266.375 C 80.355469 266.140625 80.265625 265.957031 80.070312 265.832031 C 79.613281 265.527344 79.46875 265.066406 79.640625 264.453125 C 79.722656 264.175781 79.644531 263.960938 79.402344 263.804688 C 78.910156 263.484375 78.769531 262.992188 78.988281 262.324219 C 79.027344 262.203125 79.019531 262.085938 78.964844 261.972656 C 78.914062 261.859375 78.828125 261.78125 78.710938 261.738281 L 78.511719 261.671875 C 78.347656 261.613281 78.269531 261.496094 78.269531 261.324219 L 78.269531 259.460938 C 78.269531 259.230469 78.160156 259.078125 77.949219 259 C 77.835938 258.957031 77.75 258.875 77.691406 258.761719 C 77.621094 258.632812 77.589844 258.492188 77.589844 258.339844 L 77.589844 256.058594 C 77.589844 255.835938 77.484375 255.6875 77.277344 255.609375 C 77.15625 255.566406 77.070312 255.492188 77.011719 255.378906 C 76.941406 255.25 76.910156 255.117188 76.910156 254.976562 L 76.910156 252.660156 C 76.910156 252.4375 76.804688 252.289062 76.597656 252.210938 C 76.476562 252.167969 76.390625 252.089844 76.332031 251.972656 C 76.261719 251.847656 76.230469 251.710938 76.230469 251.570312 L 76.230469 248.582031 C 76.230469 248.359375 76.128906 248.210938 75.921875 248.140625 C 75.804688 248.09375 75.714844 248.011719 75.652344 247.894531 C 75.582031 247.773438 75.550781 247.640625 75.550781 247.5 L 75.550781 244.53125 C 75.550781 244.347656 75.472656 244.207031 75.316406 244.101562 L 75.039062 243.925781 C 74.792969 243.765625 74.789062 243.597656 75.019531 243.421875 C 75.101562 243.359375 75.1875 243.300781 75.285156 243.246094 C 75.691406 243.003906 75.667969 242.820312 75.214844 242.695312 C 75.140625 242.671875 75.078125 242.628906 75.03125 242.558594 C 74.925781 242.394531 74.871094 242.210938 74.871094 242.007812 C 74.859375 239.730469 74.863281 237.398438 74.882812 235.015625 C 74.886719 234.746094 74.761719 234.578125 74.503906 234.503906 C 74.433594 234.488281 74.378906 234.449219 74.332031 234.390625 C 74.226562 234.238281 74.175781 234.070312 74.175781 233.886719 C 74.195312 232.015625 74.195312 230.15625 74.183594 228.304688 C 74.179688 228.109375 74.230469 227.933594 74.339844 227.777344 C 74.390625 227.703125 74.457031 227.65625 74.542969 227.640625 C 74.761719 227.597656 74.871094 227.46875 74.871094 227.246094 C 74.871094 224.738281 74.867188 222.15625 74.863281 219.496094 C 74.863281 219.273438 74.933594 219.078125 75.082031 218.90625 C 75.121094 218.855469 75.167969 218.824219 75.222656 218.8125 C 75.664062 218.707031 75.695312 218.523438 75.316406 218.265625 C 75.230469 218.207031 75.148438 218.152344 75.066406 218.097656 C 74.820312 217.925781 74.816406 217.742188 75.046875 217.554688 C 75.097656 217.511719 75.152344 217.484375 75.214844 217.464844 C 75.441406 217.410156 75.554688 217.265625 75.554688 217.03125 C 75.546875 215.730469 75.542969 214.5 75.550781 213.339844 C 75.550781 213.152344 75.601562 212.980469 75.707031 212.816406 C 75.746094 212.753906 75.804688 212.714844 75.875 212.699219 C 76.121094 212.65625 76.242188 212.507812 76.234375 212.257812 C 76.226562 211.207031 76.222656 210.203125 76.230469 209.246094 C 76.230469 209.070312 76.277344 208.90625 76.378906 208.75 C 76.417969 208.683594 76.476562 208.640625 76.554688 208.621094 C 76.804688 208.574219 76.925781 208.421875 76.921875 208.167969 C 76.910156 207.589844 76.902344 207.042969 76.902344 206.523438 C 76.902344 206.339844 76.957031 206.171875 77.066406 206.019531 C 77.105469 205.957031 77.164062 205.917969 77.234375 205.902344 C 77.484375 205.859375 77.605469 205.710938 77.601562 205.460938 C 77.589844 204.640625 77.582031 203.863281 77.589844 203.128906 C 77.589844 202.949219 77.640625 202.78125 77.746094 202.628906 C 77.78125 202.5625 77.832031 202.523438 77.902344 202.503906 C 78.144531 202.441406 78.269531 202.28125 78.269531 202.027344 L 78.269531 200.328125 C 78.269531 200.066406 78.386719 199.886719 78.628906 199.785156 C 78.710938 199.753906 78.78125 199.707031 78.847656 199.644531 C 78.988281 199.5 79.03125 199.332031 78.976562 199.140625 C 78.78125 198.484375 78.921875 198 79.402344 197.6875 C 79.648438 197.527344 79.730469 197.308594 79.648438 197.035156 C 79.480469 196.449219 79.609375 195.992188 80.035156 195.660156 C 80.339844 195.429688 80.433594 195.128906 80.320312 194.761719 C 80.15625 194.234375 80.300781 193.847656 80.753906 193.609375 C 81.003906 193.472656 81.089844 193.269531 81.007812 192.996094 C 80.816406 192.351562 80.964844 191.871094 81.457031 191.554688 C 81.679688 191.414062 81.753906 191.21875 81.6875 190.964844 C 81.511719 190.339844 81.65625 189.851562 82.121094 189.503906 C 82.378906 189.308594 82.460938 189.054688 82.359375 188.75 C 82.195312 188.242188 82.316406 187.84375 82.71875 187.550781 C 82.925781 187.402344 83.027344 187.199219 83.027344 186.945312 L 83.027344 186.246094 C 83.027344 186.042969 83.097656 185.867188 83.238281 185.722656 L 84.207031 184.703125 C 84.382812 184.527344 84.4375 184.320312 84.378906 184.078125 C 84.234375 183.476562 84.390625 183.023438 84.855469 182.71875 C 85.054688 182.59375 85.128906 182.414062 85.078125 182.183594 C 84.992188 181.765625 85.152344 181.492188 85.554688 181.359375 C 85.628906 181.335938 85.6875 181.289062 85.726562 181.21875 C 85.761719 181.148438 85.773438 181.070312 85.75 180.992188 C 85.632812 180.542969 85.777344 180.226562 86.179688 180.042969 C 86.402344 179.941406 86.488281 179.769531 86.4375 179.523438 C 86.34375 179.0625 86.515625 178.757812 86.960938 178.613281 C 87.105469 178.570312 87.160156 178.472656 87.117188 178.320312 C 86.96875 177.832031 87.125 177.492188 87.585938 177.296875 C 87.773438 177.214844 87.839844 177.074219 87.785156 176.875 C 87.660156 176.4375 87.8125 176.136719 88.230469 175.964844 C 88.328125 175.925781 88.402344 175.859375 88.445312 175.765625 C 88.492188 175.671875 88.5 175.574219 88.46875 175.472656 C 88.351562 175.085938 88.476562 174.808594 88.84375 174.652344 C 89.011719 174.578125 89.101562 174.449219 89.109375 174.265625 C 89.144531 173.578125 89.535156 173.019531 90.277344 172.578125 C 90.382812 172.515625 90.457031 172.429688 90.5 172.316406 C 90.542969 172.203125 90.546875 172.089844 90.507812 171.972656 C 90.414062 171.667969 90.507812 171.449219 90.789062 171.308594 C 91.015625 171.195312 91.144531 171.011719 91.175781 170.765625 C 91.265625 170.101562 91.640625 169.574219 92.304688 169.179688 C 92.460938 169.085938 92.542969 168.945312 92.542969 168.757812 L 92.542969 168.378906 C 92.542969 168.292969 92.582031 168.238281 92.664062 168.214844 C 92.746094 168.191406 92.800781 168.203125 92.832031 168.25 C 92.894531 168.34375 92.925781 168.335938 92.929688 168.222656 C 93.042969 165.148438 93.207031 162.078125 93.417969 159.003906 Z M 93.417969 159.003906 " fill-opacity="0.059" fill-rule="nonzero"/><path fill="#58bf1c" d="M 235.378906 318.039062 C 231.265625 317.679688 226.738281 317.839844 223.117188 317.441406 C 202.539062 315.171875 185.039062 307.003906 170.617188 292.945312 C 155.851562 278.554688 147.289062 260.753906 144.9375 239.542969 C 148.425781 252.394531 155.324219 262.003906 165.628906 268.367188 C 186.453125 281.21875 213.273438 277.3125 228.960938 258.339844 C 243.832031 240.355469 242.222656 213.816406 225.269531 197.617188 C 205.375 178.621094 173.453125 179.851562 155.234375 200.589844 C 149.542969 207.066406 145.925781 214.992188 144.375 224.363281 L 144.246094 143.910156 C 172.539062 128.335938 206.832031 127.628906 235.5625 142.058594 C 251.550781 150.09375 264.460938 161.679688 274.28125 176.820312 C 281.242188 187.546875 285.929688 199.4375 288.347656 212.496094 C 289.613281 219.351562 290.042969 227.085938 289.628906 235.695312 C 288.625 256.785156 280.433594 276.9375 267.050781 293.027344 C 258.328125 303.515625 247.769531 311.851562 235.378906 318.039062 Z M 235.378906 318.039062 " fill-opacity="1" fill-rule="nonzero"/><path fill="#010101" d="M 144.9375 239.542969 C 144.296875 234.476562 144.105469 229.417969 144.375 224.363281 C 145.925781 214.992188 149.542969 207.066406 155.234375 200.589844 C 173.453125 179.851562 205.375 178.621094 225.269531 197.617188 C 242.222656 213.816406 243.832031 240.355469 228.960938 258.339844 C 213.273438 277.3125 186.453125 281.21875 165.628906 268.367188 C 155.324219 262.003906 148.425781 252.394531 144.9375 239.542969 Z M 144.9375 239.542969 " fill-opacity="0.004" fill-rule="nonzero"/></svg>